<svg xmlns="http://www.w3.org/2000/svg" xmlns:xlink="http://www.w3.org/1999/xlink" width="610.553" height="449.032" viewBox="0 0 610.553 449.032"><defs><linearGradient id="a" x1="0.5" y1="1" x2="0.5" gradientUnits="objectBoundingBox"><stop offset="0" stop-color="gray" stop-opacity="0.251"/><stop offset="0.54" stop-color="gray" stop-opacity="0.122"/><stop offset="1" stop-color="gray" stop-opacity="0.102"/></linearGradient></defs><g transform="translate(0.003 0)"><path d="M843.73,701.281c11.421,4.137,25.356,1.618,38.318,1.911a12.443,12.443,0,0,1,5.076.873c1.425.712,2.121,1.872,3.1,2.866,3.629,3.684,11.046,4.871,17.574,4.242s12.465-2.7,18.607-4.269c10.609-2.728,22.732-3.965,33.2-.994a8.024,8.024,0,0,0,3,.475c2.3-.243,2.977-2.209,4.584-3.347,2.894-2.038,9.184-1.486,10.46-4.175.745-1.574-.972-3.187-2.839-4.264-7.18-4.115-17.38-4.794-26.742-4.159s-18.579,2.386-27.968,2.391c-11.72,0-23.047-2.684-34.65-3.789-8.041-.762-16.817-.663-24.356,1.58C852.915,693.058,851.114,698.514,843.73,701.281Z" transform="translate(-403.83 -332.309)" fill="#fff" opacity="0.32"/><ellipse cx="95.744" cy="17.833" rx="95.744" ry="17.833" transform="translate(195.132 348.118)" fill="#fff"/><path d="M58.46,806.249c21.716,7.3,48.209,2.861,72.847,3.375,3.374.072,6.942.282,9.648,1.541s4.037,3.314,5.893,5.059c6.9,6.511,21.053,8.588,33.413,7.483s23.7-4.761,35.346-7.55c20.175-4.816,43.233-7,63.126-1.756a16.278,16.278,0,0,0,5.7.845c4.363-.431,5.661-3.921,8.71-5.921,5.523-3.6,17.469-2.623,19.882-7.367,1.419-2.762-1.845-5.633-5.4-7.533-13.6-7.268-33.049-8.467-50.844-7.345s-35.3,4.214-53.18,4.225c-22.246.028-43.785-4.728-65.877-6.672-15.282-1.348-31.966-1.182-46.3,2.761C75.918,791.718,72.5,801.356,58.46,806.249Z" transform="translate(-52.254 -374.957)" fill="#fff" opacity="0.32"/><path d="M67.53,473.44c9.588,40.98,29.884,76.4,61.961,93.574,66.661,35.683,217,17.275,329.2-3.866a256.918,256.918,0,0,0,146.1-83.522Z" transform="translate(-56.315 -235.973)" fill="#fff" opacity="0.32"/><path d="M668.477,88.045H606.914a5.319,5.319,0,1,1,0-10.638H617.55a5.324,5.324,0,0,1,0-10.643h-7.6a5.324,5.324,0,0,1,0-10.643h32.132a84.787,84.787,0,0,0-25.063-6.909c-87.615-11.25-118.9-3.794-129.936,3.849A122.713,122.713,0,0,1,442.056,72.8c-54.08,11.151-155.148,24.571-246.784-4.3-45.547-14.359-79.391,9.9-99.682,50.413H679.164c-.762-11.775-3.043-22.644-7.229-32.165a5.291,5.291,0,0,1-3.457,1.292Z" transform="translate(-68.877 -43.47)" fill="#fff" opacity="0.32"/><path d="M57,318.56a271.036,271.036,0,0,0,2.391,71.488L599.9,409.814a253.977,253.977,0,0,0,37.555-57.272Zm213.779,51.009H260.138a5.319,5.319,0,1,1,0,10.637H198.575a5.319,5.319,0,1,1,0-10.638h10.637a5.324,5.324,0,0,1,0-10.643h-7.6a5.324,5.324,0,0,1,0-10.643h61.563a5.324,5.324,0,0,1,0,10.642h7.6a5.324,5.324,0,1,1,0,10.643Z" transform="translate(-51.005 -166.631)" fill="#fff" opacity="0.32"/><path d="M662.456,180.75,72.343,195.1c-7.18,18.457-11.935,39.317-14.133,60.939h593.9a252.424,252.424,0,0,0,8.577-38.842,184.5,184.5,0,0,0,1.769-36.447ZM178.023,227.788H167.386a5.319,5.319,0,1,1,0,10.637H105.823a5.319,5.319,0,1,1,0-10.637H116.46a5.324,5.324,0,0,1,0-10.643h-7.6a5.324,5.324,0,0,1,0-10.643h61.563a5.324,5.324,0,0,1,0,10.643h7.6a5.324,5.324,0,1,1,0,10.643Z" transform="translate(-52.142 -104.932)" fill="#fff" opacity="0.32"/><g transform="translate(345.506 204.686)" opacity="0.1"><path d="M680.11,553.863s15.575-38.373,44.674-52.622a62.747,62.747,0,0,0,28.487-27.659,105.586,105.586,0,0,0,7.141-17.933" transform="translate(-676.081 -432.694)" fill="none" stroke="#535461" stroke-miterlimit="10" stroke-width="2"/><path d="M843.392,427.956c-3.032,3.811-18.722,9.389-18.722,9.389s1.889-16.541,4.921-20.352A8.837,8.837,0,0,1,843.4,427.967Z" transform="translate(-740.802 -414.085)" fill="#6c63ff"/><path d="M831.946,480.063c-4.617,1.552-20.816-2.309-20.816-2.309s10.576-12.857,15.193-14.409a8.837,8.837,0,0,1,5.622,16.718Z" transform="translate(-734.74 -436.005)" fill="#6c63ff"/><path d="M782.38,544.377c-4.772-.994-16.8-12.5-16.8-12.5s15.619-5.76,20.385-4.772a8.837,8.837,0,1,1-3.584,17.27Z" transform="translate(-714.347 -464.636)" fill="#6c63ff"/><path d="M729.867,584.05c-4.866-.171-18.667-9.477-18.667-9.477s14.42-8.318,19.286-8.146a8.837,8.837,0,1,1-.619,17.623Z" transform="translate(-690 -482.289)" fill="#6c63ff"/><path d="M783.816,462.536c.624,4.832,11.173,17.712,11.173,17.712s6.942-15.133,6.318-19.965a8.837,8.837,0,0,0-17.491,2.253Z" transform="translate(-722.503 -431.573)" fill="#6c63ff"/><path d="M723.91,506.954c2.038,4.418,15.956,13.559,15.956,13.559s2.1-16.513.061-20.937a8.837,8.837,0,1,0-16.016,7.379Z" transform="translate(-695.21 -449.817)" fill="#6c63ff"/><path d="M673.3,562.006c1.27,4.706,13.421,16.061,13.421,16.061s4.855-15.922,3.6-20.628a8.837,8.837,0,1,0-17.033,4.568Z" transform="translate(-672.815 -475.079)" fill="#6c63ff"/><path d="M843.392,427.956c-3.032,3.811-18.722,9.389-18.722,9.389s1.889-16.541,4.921-20.352A8.837,8.837,0,0,1,843.4,427.967Z" transform="translate(-740.802 -414.085)" opacity="0.25"/><path d="M831.946,480.063c-4.617,1.552-20.816-2.309-20.816-2.309s10.576-12.857,15.193-14.409a8.837,8.837,0,0,1,5.622,16.718Z" transform="translate(-734.74 -436.005)" opacity="0.25"/><path d="M782.38,544.377c-4.772-.994-16.8-12.5-16.8-12.5s15.619-5.76,20.385-4.772a8.837,8.837,0,1,1-3.584,17.27Z" transform="translate(-714.347 -464.636)" opacity="0.25"/><path d="M729.867,584.05c-4.866-.171-18.667-9.477-18.667-9.477s14.42-8.318,19.286-8.146a8.837,8.837,0,1,1-.619,17.623Z" transform="translate(-690 -482.289)" opacity="0.25"/><path d="M783.816,462.536c.624,4.832,11.173,17.712,11.173,17.712s6.942-15.133,6.318-19.965a8.837,8.837,0,0,0-17.491,2.253Z" transform="translate(-722.503 -431.573)" opacity="0.25"/><path d="M723.91,506.954c2.038,4.418,15.956,13.559,15.956,13.559s2.1-16.513.061-20.937a8.837,8.837,0,1,0-16.016,7.379Z" transform="translate(-695.21 -449.817)" opacity="0.25"/><path d="M673.3,562.006c1.27,4.706,13.421,16.061,13.421,16.061s4.855-15.922,3.6-20.628a8.837,8.837,0,1,0-17.033,4.568Z" transform="translate(-672.815 -475.079)" opacity="0.25"/></g><g transform="translate(321.871 124.626)" opacity="0.1"><path d="M660.09,435.163s1.966-41.377,24.682-64.457a62.713,62.713,0,0,0,17.7-35.534,105.159,105.159,0,0,0,.79-19.291" transform="translate(-643.483 -290.057)" fill="none" stroke="#535461" stroke-miterlimit="10" stroke-width="2"/><path d="M750.169,280.322c-1.6,4.6-14.558,15.05-14.558,15.05s-3.7-16.232-2.1-20.832a8.837,8.837,0,0,1,16.663,5.782Z" transform="translate(-676.173 -269.124)" fill="#6c63ff"/><path d="M756.466,331.094c-3.866,2.993-20.4,4.728-20.4,4.728s5.71-15.641,9.555-18.634A8.837,8.837,0,1,1,756.462,331.1Z" transform="translate(-677.5 -289.636)" fill="#6c63ff"/><path d="M728.3,408.483c-4.827.646-20-6.219-20-6.219S721.13,391.649,725.973,391a8.837,8.837,0,0,1,2.342,17.48Z" transform="translate(-665.067 -323.682)" fill="#6c63ff"/><path d="M692.79,463.349c-4.65,1.452-20.761-2.761-20.761-2.761s10.847-12.631,15.5-14.083a8.837,8.837,0,0,1,5.263,16.834Z" transform="translate(-648.828 -348.426)" fill="#6c63ff"/><path d="M703.213,333.415c2.209,4.352,16.414,13.006,16.414,13.006s1.53-16.569-.657-20.926a8.837,8.837,0,0,0-15.757,7.92Z" transform="translate(-662.476 -292.41)" fill="#6c63ff"/><path d="M661.426,395.189c3.386,3.5,19.545,7.5,19.545,7.5s-3.5-16.276-6.887-19.777a8.837,8.837,0,1,0-12.659,12.277Z" transform="translate(-642.776 -318.672)" fill="#6c63ff"/><path d="M631.931,463.87c2.761,4.015,18,10.692,18,10.692s-.7-16.635-3.446-20.656a8.837,8.837,0,1,0-14.558,9.941Z" transform="translate(-630.02 -349.891)" fill="#6c63ff"/></g><rect width="3.75" height="52.997" transform="translate(203.886 57.598)" fill="#535461"/><rect width="3.75" height="29.978" transform="translate(203.886 128.799)" fill="#535461"/><rect width="168.63" height="366.166" rx="10" transform="translate(206.565 5.672)" fill="#535461"/><rect width="168.63" height="333.509" rx="12" transform="translate(206.565 22.804)" fill="#fff"/><rect width="27.835" height="3.75" rx="1.875" transform="translate(277.224 13.703)" fill="#eaeaf3"/><circle cx="2.679" cy="2.679" r="2.679" transform="translate(312.018 13.167)" fill="#eaeaf3"/><path d="M471,557.858v-9.941a.287.287,0,0,1,.287-.287h1.1a.282.282,0,0,1,.282.287v4.142l4.6-4.253a.757.757,0,0,1,1.237.58v9a.757.757,0,0,1-1.237.58l-4.612-4.23v4.12a.282.282,0,0,1-.282.287h-1.1a.287.287,0,0,1-.275-.285Z" transform="translate(-236.953 -269.189)" fill="#535461"/><path d="M665.9,547.9v9.941a.282.282,0,0,1-.282.287h-1.132a.282.282,0,0,1-.282-.287V553.7l-4.595,4.253a.751.751,0,0,1-1.232-.58v-8.98a.751.751,0,0,1,1.231-.58l4.6,4.231v-4.12a.282.282,0,0,1,.282-.287h1.132A.282.282,0,0,1,665.9,547.9Z" transform="translate(-320.846 -269.189)" fill="#535461"/><path d="M565.358,558.493H563.1a1.1,1.1,0,0,1-1.1-1.1V549.1a1.1,1.1,0,0,1,1.1-1.1h2.248a1.1,1.1,0,0,1,1.1,1.1v8.246a1.1,1.1,0,0,1-1.1,1.143Zm7.125-1.1V549.1a1.1,1.1,0,0,0-1.1-1.1H569.13a1.1,1.1,0,0,0-1.1,1.1v8.246a1.1,1.1,0,0,0,1.1,1.1h2.248a1.1,1.1,0,0,0,1.116-1.1Z" transform="translate(-277.695 -269.354)" fill="#535461"/><rect width="132.549" height="1.475" transform="translate(223.26 265.269)" fill="#e4e4ec"/><circle cx="3.496" cy="3.496" r="3.496" transform="translate(260.694 262.508)" fill="#535461"/><rect width="40.93" height="1.475" transform="translate(223.26 265.269)" fill="#535461"/><path d="M237.469,322.618s-4.728-12.045-20.8-22.793S200.786,282.7,200.786,282.7s-3.021-22.544-6.992-28.84-6.241-15.381-6.241-15.381-.166.221-.436.552a3.971,3.971,0,0,0-.055-.486c-.4-3.336-1.441-9.593-3.165-7.66,0,0-.392.32-1.049.828l-.271-.348c-1.585-2.049-4.17-5.462-4.17-6.037,0-.834-19.755-16.016-24.77-18.352-3.535-1.657-11.129-5.9-15.282-8.284a9.626,9.626,0,0,0-6.418-1.1c-6.075,1.055-17.673,3.789-16.116,9.013,2.077,7.042,10.112,5.1,15.6,1.1,0,0,4.827-1.85,10.306,3.617s27.99,21.589,27.99,21.589l1.872,5.191.177.5a4.921,4.921,0,0,1-2.049.337c-1.7-.215-1.005,1.453.237,3.314.171.254.353.514.552.768-.226-.088-.447-.171-.679-.276,0,0,.133.254.359.707l-.359-.149s8.7,16.679,9.262,19.833a25.92,25.92,0,0,1,.4,4.175c0,1.452-.21,2.585-.591,2.866-.757.552-3.027,6.3-3.027,6.3l-8.886.381h0c-.265-.028-.552-.055-.8-.094l-.552-.083v-.21a16.111,16.111,0,0,0-3.6-10.146h.133c1.878-4.087-2.165-8.351-3.043-12.769a27.111,27.111,0,0,1-.276-4.347,16.71,16.71,0,0,0-.149-1.734c-.911-6.1-6.71-10.173-12.36-12.493-3.314-1.375-7.18-2.4-10.46-.928-3.833,1.7-5.683,6.18-9.14,8.56-5.523,3.8-13.039,1.182-19.634,2.309a9.875,9.875,0,0,0-6.627,3.728,12.025,12.025,0,0,0-1.657,6.6c-.16,6.114,1.066,12.36-.552,18.225-2.623,9.588-11.775,15.464-18.618,22.6a55.138,55.138,0,0,0-10.493,15.558c-.978,2.182-1.734,4.971-.16,6.771.9,1.011,2.325,1.375,3.264,2.342,1.2,1.232,1.359,3.159,1.138,4.871-.823,6.368-5.606,11.311-9.389,16.48S57.349,354.37,60.553,359.9c2.761,4.766,8.8,6.191,14.183,7.18a9.768,9.768,0,0,0,5.153,0A8.57,8.57,0,0,0,83.409,364a43.448,43.448,0,0,0,5.479-9.466c.7-1.657,1.386-3.474,2.916-4.418,1.353-.812,3.043-.707,4.623-.58l11.808.972a6.7,6.7,0,0,0,2.982-.2,5.617,5.617,0,0,0,2.585-2.518,22.732,22.732,0,0,0,2.11-5.015c1.419-4.6,2.209-9.521,5.523-12.813,2.993-2.933,7.423-3.811,11.6-3.866,2.552,0,5.1.232,7.644.337.712.033,1.436.055,2.148.055.48,0,.961,0,1.441-.028.944,6.55,2.11,16.248,1.2,18.932a21.276,21.276,0,0,0-1.325,6.859l.652.32c-.061.149-.122.3-.182.469-.685,1.85-1.165,4.573.95,6.3a8.136,8.136,0,0,0,1.1.74l-.16.464c-2.06,5.976-6.788,19.954-7.229,23.671-.552,4.772-7.373,19.28-7.373,19.28s-18.529,15.238-1.845,20.755a33.976,33.976,0,0,1,5.109-10.228,28.168,28.168,0,0,0,4.694-8.881,14.433,14.433,0,0,1,1.944-3.921c1.486-2.11,4.628-8.588,7.566-14.912l2.353.5c-1.182,5.109-1.5,13.918,2.894,27.929l.243,1.43a1.466,1.466,0,0,0-.3-.166c-2.1-.867-5.39,2.121-7.356,6.683-1.795,4.17-1.867,8.207-.249,9.527a1.878,1.878,0,0,0,.492.3,2.413,2.413,0,0,0,1.795-.055.465.465,0,0,0,.077-.033,5.326,5.326,0,0,0,1.3-.762c1.58-.392,3.192-1.149,4.816-1.066a5.763,5.763,0,0,1,1.265.21c.11,1.657.166,3.264.122,4.634-.215,7.3-.348,10.493-.348,10.493s-1.071,5.418-1.922,6.738-1.767,29.271,1.773,42.675c0,0,2.413,13,1.348,15.215v.044a12.044,12.044,0,0,0-.79,3.662,31.729,31.729,0,0,0-.1,3.248l-5.109,15.635s-.138.276-.32.729a8.373,8.373,0,0,0-.608,4.2,4.209,4.209,0,0,0,.751,1.834h0s-.723,6.881,7.042,6.76,9.124-5.324,9.124-5.324l-.552-2.436a2.037,2.037,0,0,0,.094-.6s-.055-.856-.116-2.143c-.138-3.385-.3-9.742.475-11.2,1.06-2.016.42-10.632.42-10.632l-.282-2.347-.293-2.452-.414-3.474s-.121-14.8,1.176-16.955c1.2-1.994,5.114-20.158,3.954-32.331a14.58,14.58,0,0,1,.7-5.9c1.16-3.579,2.761-9.538,2.32-13.752-.044-.4-.072-.922-.083-1.546a10.494,10.494,0,0,0,8.108,4.772h.265a10.306,10.306,0,0,0,6.661-2.043c3.971-2.938,8.284-7.837,10.681-15.922a57.994,57.994,0,0,1,2.358-6.627c2.209-5.053,5.987-14.547,6.8-21.346l.237.232s5.3-15.773,5.153-21.937a5.374,5.374,0,0,0-.331-2.386l-.061-.486a.384.384,0,0,1,.061-.072s-2.093-16.513-2.833-30.6l6.8-5.076s-3.214-6.627-1.138-7.87,5.109,6.572,5.109,6.572S243.147,333.923,237.469,322.618Zm-75.917,18.253,4.313-4.335c.414,2.38-.591,5.236-4.418,8.505l-.133.044C161.552,342.71,161.552,340.871,161.552,340.871Zm-5.164-47.657s-.5.381-1.3,1.027c-.138-.784-.282-1.574-.436-2.358.243.149.48.3.707.464a9.049,9.049,0,0,1,1.029.867ZM178.17,395.222l.552-4.59,1.21.79a58.4,58.4,0,0,0-2.441,9.809c.287-2.933.514-5.125.607-6.075Zm-1.1,14.685a6.628,6.628,0,0,1-.315,2.546h-.3c.188-2.137.376-4.225.552-6.175a35.845,35.845,0,0,0,.077,3.629Z" transform="translate(-52.576 -112.406)" fill="url(#a)"/><path d="M219.47,604.916v6.075c2.425.9,4.971-1.193,7.555-1.06,1.508.072,2.877.911,4.369,1.165a1.424,1.424,0,0,0,1.1-.16,1.608,1.608,0,0,0,.453-1.044c.552-3.231,1.16-11.046-3.866-11.6C225.374,597.869,223.955,604.485,219.47,604.916Z" transform="translate(-124.34 -291.863)" fill="#ffb9b9"/><path d="M219.47,604.916v6.075c2.425.9,4.971-1.193,7.555-1.06,1.508.072,2.877.911,4.369,1.165a1.424,1.424,0,0,0,1.1-.16,1.608,1.608,0,0,0,.453-1.044c.552-3.231,1.16-11.046-3.866-11.6C225.374,597.869,223.955,604.485,219.47,604.916Z" transform="translate(-124.34 -291.863)" opacity="0.1"/><path d="M224.939,602.75c-1.408,3.314-3.513,5.816-5.341,6.555a.442.442,0,0,1-.077.033,2.314,2.314,0,0,1-1.745.05,1.656,1.656,0,0,1-.48-.3c-1.574-1.315-1.508-5.324.243-9.466,1.911-4.529,5.12-7.5,7.18-6.627S226.856,598.221,224.939,602.75Z" transform="translate(-122.862 -289.432)" fill="#4c4c78"/><path d="M226.252,812.886l-.1,1.447s-.679,6.793,6.87,6.7,8.881-5.291,8.881-5.291l-.779-3.452Z" transform="translate(-127.322 -387.681)" fill="#4c4c78"/><path d="M251.5,543.641s-3.656,35.827-2.966,42.178c.453,4.186-1.1,10.107-2.259,13.664a14.757,14.757,0,0,0-.679,5.86c1.1,12.1-2.679,30.138-3.866,32.116-1.265,2.143-1.149,16.845-1.149,16.845l.4,3.452.287,2.435.271,2.331s.624,8.56-.409,10.56c-.751,1.453-.6,7.765-.458,11.129.055,1.276.11,2.126.11,2.126a2.474,2.474,0,0,1-.63,1.613c-.933,1.149-3.247,2.452-8.964,2.253-4.567-.16-6.075-2.066-6.429-4.076a8.472,8.472,0,0,1,.591-4.17c.177-.453.315-.724.315-.724l4.971-15.536a31.305,31.305,0,0,1,.1-3.225,12.044,12.044,0,0,1,.768-3.634v-.044c1.038-2.209-1.314-15.116-1.314-15.116-3.446-13.327-2.552-41.079-1.723-42.393s1.916-6.666,1.916-6.666.133-3.176.342-10.427-2.143-20.567-2.143-20.567c-7.8-25.405-.342-33.623-.342-33.623l23.262,5.457Z" transform="translate(-126.689 -261.296)" fill="#ffb9b9"/><path d="M246.2,763.738c-2.529.839-7.732,2.436-10.527,2.281a12.048,12.048,0,0,1,.768-3.634c2.281.458,6.147.8,9.472-1.1Z" transform="translate(-131.593 -364.843)" fill="#4c4c78"/><path d="M240.19,810.908c-3.435-1.8-9.908-4.363-15.392-1.823a8.472,8.472,0,0,1,.591-4.17c3.187-.425,9.941-.823,15.32,2.253.055,1.276.11,2.126.11,2.126a2.475,2.475,0,0,1-.63,1.613Z" transform="translate(-126.702 -384.25)" fill="#4c4c78"/><path d="M208.062,488.12v14.172s-10.582,24.626-13.691,29.133a14.361,14.361,0,0,0-1.894,3.894,28.117,28.117,0,0,1-4.573,8.836,33.825,33.825,0,0,0-4.971,10.157c-16.243-5.479,1.795-20.617,1.795-20.617s6.627-14.409,7.18-19.148c.431-3.7,5.031-17.579,7.036-23.516.552-1.657.928-2.717.928-2.717Z" transform="translate(-104.946 -242.545)" fill="#ffb9b9"/><path d="M268.524,587.436s-5.683-3.866-7.892,6.628,6.263,13.255,6.263,13.255Z" transform="translate(-142.604 -286.699)" fill="none"/><path d="M268.524,587.436s-5.683-3.866-7.892,6.628,6.263,13.255,6.263,13.255Z" transform="translate(-142.604 -286.699)" opacity="0.05"/><path d="M272.919,539.325s-5.269,11.543-4.485,22.826a6.534,6.534,0,0,1-.5,3.049,39.708,39.708,0,0,0-2.988,17.48v.331a10.085,10.085,0,0,0,16.116,7.373c3.866-2.922,8.069-7.787,10.4-15.818a59.886,59.886,0,0,1,2.3-6.583c2.761-6.456,8.08-20.219,6.484-26.173C298.142,533.918,272.919,539.325,272.919,539.325Z" transform="translate(-144.674 -264.662)" fill="#ffb9b9"/><path d="M307.49,541.8c-.922-3.452-6.235-4.363-11.929-4.3,5.263.066,9.941,1.1,10.825,4.3,1.591,5.954-3.739,19.717-6.484,26.173a58.052,58.052,0,0,0-2.3,6.583c-2.336,8.03-6.534,12.9-10.4,15.818a9.941,9.941,0,0,1-5.484,2.021,9.9,9.9,0,0,0,6.589-2.021c3.866-2.916,8.063-7.787,10.4-15.818a58.048,58.048,0,0,1,2.3-6.583C303.751,561.522,309.08,547.754,307.49,541.8Z" transform="translate(-152.21 -264.651)" opacity="0.1"/><path d="M223.321,508.08s-4.076,16.016-4.971,16.983c0,0,26.51,5.313,30.3,9.317l.552-4.556,1.867,1.243s15.326-10.908,28.719,2.761c0,0,6.556-19.882,4.694-23.61s-24.234-.481-24.234-.481Z" transform="translate(-123.839 -251.482)" opacity="0.1"/><path d="M223.321,507.08s-4.076,16.016-4.971,16.983c0,0,26.51,5.313,30.3,9.317l.552-4.556,1.867,1.243s15.326-10.908,28.719,2.761c0,0,6.556-19.882,4.694-23.61s-24.234-.48-24.234-.48Z" transform="translate(-123.839 -251.034)" fill="#4c4c78"/><path d="M153.2,303.055a12.041,12.041,0,0,0,.05,2.5c.182,1.657.436,3.314.718,4.971.083.486.171.966.26,1.447.873,4.739,2,9.439,2.761,14.2a69.036,69.036,0,0,1,.806,7.357,40.532,40.532,0,0,1-1.176,12.99,26.063,26.063,0,0,1-2.872,6.7,8.49,8.49,0,0,1-1.988,2.386,5.473,5.473,0,0,1-.552.348,8.93,8.93,0,0,1-3.7,1.005c-.878.083-1.756.11-2.64.11-.7,0-1.4,0-2.093-.055-2.48-.1-4.971-.353-7.439-.337-4.059.033-8.373.906-11.289,3.822-3.27,3.27-4.015,8.163-5.4,12.7a23.126,23.126,0,0,1-2.055,4.971,5.523,5.523,0,0,1-2.518,2.5,6.351,6.351,0,0,1-2.9.2L99.652,379.9a7.339,7.339,0,0,0-4.5.58c-1.486.911-2.159,2.723-2.839,4.363a43.276,43.276,0,0,1-5.335,9.389,8.541,8.541,0,0,1-3.419,3.065,9,9,0,0,1-5.015,0c-5.236-.972-11.112-2.386-13.807-7.119-3.12-5.523-.293-12.553,3.363-17.673s8.334-9.985,9.135-16.32c.215-1.7.061-3.617-1.1-4.838-.917-.961-2.3-1.326-3.176-2.325-1.535-1.773-.8-4.562.155-6.727a54.836,54.836,0,0,1,10.223-15.464c6.666-7.08,15.574-12.923,18.126-22.445,1.563-5.849.37-12.056.525-18.126a12.153,12.153,0,0,1,1.618-6.561,9.608,9.608,0,0,1,6.462-3.7c6.418-1.1,13.724,1.486,19.115-2.292,3.363-2.364,5.169-6.815,8.9-8.505,3.209-1.458,6.937-.442,10.184.922,5.523,2.3,11.145,6.346,12.034,12.41a16.346,16.346,0,0,1,.144,1.723,27.451,27.451,0,0,0,.271,4.319c.856,4.385,4.788,8.621,2.96,12.7C158.042,297.985,153.651,298,153.2,303.055Z" transform="translate(-54.462 -142.427)" fill="#b96b6b"/><path d="M193.3,382.273c-1.994,3-3.684,6.224-5.39,9.439a8.931,8.931,0,0,1-3.7,1c-.878.083-1.756.11-2.64.11-.7,0-1.4,0-2.093-.055-2.48-.1-4.971-.354-7.439-.337-4.059.033-8.373.906-11.289,3.822-3.27,3.27-4.015,8.163-5.4,12.7h-.6c-2.872,0-5.4-1.817-7.6-3.651a5.434,5.434,0,0,1-1.441-1.574,4.159,4.159,0,0,1-.342-2.364c.32-3.2,2.5-5.849,4.462-8.389a93.667,93.667,0,0,0,5.893-8.583,7.488,7.488,0,0,0,1.508-4.418c-.11-1.27-.823-2.4-1.1-3.64-.757-3.181,1.386-6.351,3.9-8.433s5.523-3.6,7.638-6.1a16.277,16.277,0,0,0,3.363-9.3c.171-2.347.1-4.971,1.7-6.7,2.353-2.557,5.992-.972,8.914-.729,3.049.26,6.036.663,9.024,1.176.083.486.171.967.26,1.447.873,4.739,2,9.439,2.761,14.2a69.037,69.037,0,0,1,.806,7.357A40.532,40.532,0,0,1,193.3,382.273Z" transform="translate(-91.146 -178.186)" opacity="0.1"/><path d="M229.339,235.216l-11.046,7.55-.845-2.391-1.823-5.158s-21.909-16.016-27.25-21.445-10.03-3.59-10.03-3.59c-5.341,3.96-13.167,5.893-15.188-1.1-1.508-5.192,9.775-7.9,15.69-8.953a9.207,9.207,0,0,1,6.246,1.1c4.043,2.353,11.438,6.589,14.879,8.218,4.882,2.3,24.118,17.4,24.118,18.225,0,.552,2.513,3.965,4.059,6C228.842,234.581,229.339,235.216,229.339,235.216Z" transform="translate(-99.067 -113.541)" fill="#ffb9b9"/><path d="M322.1,385.12l4.971,39.395,7.732-5.887s-3.132-6.627-1.1-7.82,4.971,6.528,4.971,6.528,19.7,1.1,14.177-10.123l-6.263-8.1-12.333-8.754Z" transform="translate(-170.289 -196.431)" fill="#757a9b"/><path d="M322.1,385.12l4.971,39.395,7.732-5.887s-3.132-6.627-1.1-7.82,4.971,6.528,4.971,6.528,19.7,1.1,14.177-10.123l-6.263-8.1-12.333-8.754Z" transform="translate(-170.289 -196.431)" opacity="0.1"/><path d="M258.506,356.769l-2.391,19.882-15.95,1.292s-17.016-4.855-10.742-16.756c2.85-5.412,1.06-8.654-1.524-10.554a15.95,15.95,0,0,0-6.3-2.513s-.464-30.376,4.871-20.07c2.4,4.634,7.285,6.478,11.94,7.108a38.157,38.157,0,0,0,11.073-.293Z" transform="translate(-125.29 -169.925)" fill="#ffb9b9"/><path d="M238.414,335.418a16.263,16.263,0,0,1-10.52,15.213,15.949,15.949,0,0,0-6.3-2.511s-.464-30.376,4.871-20.07c2.4,4.634,7.285,6.478,11.94,7.108a2.222,2.222,0,0,1,.012.26Z" transform="translate(-125.285 -169.925)" opacity="0.1"/><circle cx="16.265" cy="16.265" r="16.265" transform="translate(80.047 148.676)" fill="#ffb9b9"/><path d="M273.461,262.526l-11.046,7.55-.845-2.391c3.286-1.077,8.351-4.86,10.7-6.7C272.964,261.891,273.461,262.526,273.461,262.526Z" transform="translate(-143.189 -140.852)" opacity="0.1"/><path d="M274.592,269.4l-.464,2.115-12.885,4.142a47.462,47.462,0,0,1-3.54-4.54c-1.21-1.839-1.889-3.5-.232-3.281,3.59.458,13.807-8.008,13.807-8.008,1.707-1.917,2.706,4.3,3.109,7.621C274.526,268.6,274.592,269.4,274.592,269.4Z" transform="translate(-140.913 -140.175)" fill="#cbcdda"/><path d="M226.538,488.12v5.053c-1.1,0-5.987-.249-9.118-2.154.552-1.657.928-2.717.928-2.717Z" transform="translate(-123.422 -242.545)" opacity="0.1"/><path d="M226.994,477.848l-.7,3.126-1.453,6.351s-6.9,0-10.262-2.806c-2.06-1.718-1.6-4.418-.928-6.257a11.562,11.562,0,0,1,.928-1.983Z" transform="translate(-121.481 -237.244)" fill="#cbcdda"/><path d="M227.453,477.848l-.7,3.126c-3.264,1.723-10.731-1.767-12.642-2.712a11.567,11.567,0,0,1,.928-1.983Z" transform="translate(-121.94 -237.244)" opacity="0.1"/><path d="M213.515,408.62l-1.745,6.721s3.5,20.893,2.115,25.035a21.445,21.445,0,0,0-1.287,6.81s10.123,5.341,13.531,2.673,3.4-13.967,3.4-13.967l7.18-7.362L227.6,415.369Z" transform="translate(-120.893 -206.952)" fill="#757a9b"/><path d="M255.1,361s8.7,29.133-19.606,22.368l8.19,32.171L227.35,445.914s52.329,8.837,61.166-2.623c0,0-4.28-34.518-2.623-46.116s-5.247-29.691-8.975-30.862S255.1,361,255.1,361Z" transform="translate(-127.868 -185.632)" opacity="0.1"/><path d="M255.1,363s8.7,29.133-19.606,22.368l8.19,32.171L227.35,447.914s52.329,8.837,61.166-2.623c0,0-4.28-34.518-2.623-46.116s-5.247-29.691-8.975-30.862S255.1,363,255.1,363Z" transform="translate(-127.868 -186.527)" opacity="0.1"/><path d="M255.1,362s8.7,29.133-19.606,22.368l8.19,32.171L227.35,446.914s52.329,8.837,61.166-2.623c0,0-4.28-34.518-2.623-46.116s-5.247-29.691-8.975-30.862S255.1,362,255.1,362Z" transform="translate(-127.868 -186.08)" fill="#cbcdda"/><path d="M266.961,279.6c-1.657.773-5.379,1.789-10.77-.58,0,0,8.472,16.569,9.024,19.7s.552,7-.188,7.55-2.944,6.257-2.944,6.257l-8.654.381s5.523,2.209,5.523,6.429,12.15,12.15,18.6,15.282,32.767,12.355,32.767,12.355L322.1,358.368s-4.6-11.968-20.251-22.644S286.385,318.7,286.385,318.7s-2.944-22.368-6.81-28.631S273.5,274.79,273.5,274.79s-3.093,4.264-4.932,4.38A4.54,4.54,0,0,0,266.961,279.6Z" transform="translate(-139.544 -147.035)" opacity="0.1"/><path d="M275.579,275.87l-.464,2.115-12.885,4.142a47.467,47.467,0,0,1-3.54-4.54c5.319,2.292,8.969,1.287,10.626.519a4.419,4.419,0,0,1,1.607-.431c1.4-.088,3.513-2.563,4.451-3.756C275.513,275.069,275.579,275.87,275.579,275.87Z" transform="translate(-141.899 -146.645)" opacity="0.1"/><path d="M266.961,278.6c-1.657.773-5.379,1.789-10.77-.58,0,0,8.472,16.569,9.024,19.7s.552,7-.188,7.55-2.944,6.257-2.944,6.257l-8.654.381s5.523,2.209,5.523,6.429,12.15,12.15,18.6,15.282,32.767,12.355,32.767,12.355L322.1,357.368s-4.6-11.968-20.251-22.644S286.385,317.7,286.385,317.7s-2.944-22.368-6.81-28.631S273.5,273.79,273.5,273.79s-3.093,4.264-4.932,4.38a4.541,4.541,0,0,0-1.607.43Z" transform="translate(-139.544 -146.587)" fill="#757a9b"/><path d="M185.792,334.024c.552-1.74.221-3.634.453-5.446.619-4.91,5.241-8.864,5.026-13.807a2.209,2.209,0,0,1,.193-1.359,1.773,1.773,0,0,1,1.2-.591c2.408-.436,5.175-.2,6.964-1.872s1.745-4.689,1.475-7.229c-.149-1.364-.365-2.866-1.408-3.767a5.429,5.429,0,0,0-2.413-.989q-4.518-1.027-9.085-1.8c-3.071-.519-6.3-.933-9.223.144s-5.192,3.606-7.274,6.02c-1.961,2.27-4.054,5-3.5,7.953.3,1.6,1.348,2.944,2.043,4.418a10.7,10.7,0,0,1-.552,10c-1.447,2.342-3.866,4.192-4.451,6.876a6.568,6.568,0,0,0,2.866,6.655C172.493,342.126,184.063,339.508,185.792,334.024Z" transform="translate(-100.001 -156.817)" opacity="0.1"/><path d="M184.792,334.024c.552-1.74.221-3.634.453-5.446.619-4.91,5.241-8.864,5.026-13.807a2.209,2.209,0,0,1,.193-1.359,1.773,1.773,0,0,1,1.2-.591c2.408-.436,5.175-.2,6.964-1.872s1.745-4.689,1.475-7.229c-.149-1.364-.365-2.866-1.408-3.767a5.43,5.43,0,0,0-2.414-.989q-4.518-1.027-9.085-1.8c-3.071-.519-6.3-.933-9.223.144s-5.191,3.606-7.274,6.02c-1.961,2.27-4.054,5-3.5,7.953.3,1.6,1.348,2.944,2.043,4.418a10.7,10.7,0,0,1-.552,10c-1.447,2.342-3.866,4.192-4.451,6.876a6.568,6.568,0,0,0,2.866,6.655C171.493,342.126,183.063,339.508,184.792,334.024Z" transform="translate(-99.553 -156.817)" fill="#b96b6b"/><path d="M224.329,372.23s-13.658,10.8-14.116,14.393,1.469,12.056,1.469,12.056l13.625,8.56s15.74,6.169,3.96,16.475-15.928,32.4-15.928,32.4,5.711,6.81,16.386-12.769c0,0,10.311-11.228,10.77-16.751s2.066-22.462-4.9-32.955c-4.6-6.926-7.1-14.7-8.9-18.728a5.048,5.048,0,0,0-2.366-2.681Z" transform="translate(-120.164 -190.66)" opacity="0.1"/><path d="M223.329,372.23s-13.658,10.8-14.116,14.393,1.469,12.056,1.469,12.056l13.625,8.56s15.74,6.169,3.96,16.475-15.928,32.4-15.928,32.4,5.711,6.81,16.386-12.769c0,0,10.311-11.228,10.77-16.751s2.066-22.462-4.9-32.955c-4.6-6.926-7.1-14.7-8.9-18.728a5.047,5.047,0,0,0-2.366-2.681Z" transform="translate(-119.716 -190.66)" fill="#757a9b"/><path d="M235.137,465.45s-11.985,3.755-10.527,15.464" transform="translate(-126.586 -232.396)" opacity="0.1"/><path d="M199.488,392.65l-2.778,12.062,5.247-5.379Z" transform="translate(-88.071 -175.794)" opacity="0.1"/><path d="M224.1,502.99l-3.58,2.71,3.027,1.845Z" transform="translate(-98.731 -225.195)" opacity="0.1"/><path d="M310.6,432.686s12.316.4,12.564-4.236" transform="translate(-165.14 -215.83)" opacity="0.1"/><path d="M84.529,772.33s3.038,3.971-1.4,9.941S75.041,793.317,76.5,797.05c0,0,6.688-11.123,12.15-11.278S90.521,779.024,84.529,772.33Z" transform="translate(-60.186 -369.79)" fill="#1ed761"/><path d="M84.674,772.33a5,5,0,0,1,.624,1.242c5.313,6.246,8.141,12.073,3.032,12.217-4.755.166-10.449,8.643-11.83,10.792a3.868,3.868,0,0,0,.166.486s6.688-11.123,12.15-11.278S90.666,779.024,84.674,772.33Z" transform="translate(-60.331 -369.79)" opacity="0.1"/><path d="M100.951,780.765c0,1.4-.16,2.53-.353,2.53s-.348-1.132-.348-2.53.193-.74.387-.74S100.951,779.39,100.951,780.765Z" transform="translate(-70.964 -373.166)" fill="#ffd037"/><path d="M103.061,783.731c-1.226.668-2.3,1.071-2.386.9s.823-.851,2.049-1.519.746-.182.839,0S104.3,783.063,103.061,783.731Z" transform="translate(-71.151 -374.465)" fill="#ffd037"/><path d="M56.765,772.33s-3.038,3.971,1.4,9.941,8.091,11.046,6.627,14.779c0,0-6.694-11.123-12.15-11.278S50.772,779.024,56.765,772.33Z" transform="translate(-48.443 -369.79)" fill="#1ed761"/><path d="M56.769,772.33a5,5,0,0,0-.624,1.242c-5.313,6.246-8.141,12.073-3.032,12.217,4.755.138,10.46,8.643,11.83,10.792a5.006,5.006,0,0,1-.16.486s-6.694-11.112-12.139-11.278S50.776,779.024,56.769,772.33Z" transform="translate(-48.447 -369.79)" opacity="0.1"/><path d="M52.07,780.765c0,1.4.16,2.53.353,2.53s.348-1.132.348-2.53-.193-.74-.387-.74S52.07,779.39,52.07,780.765Z" transform="translate(-49.393 -373.166)" fill="#ffd037"/><path d="M47.964,783.731c1.226.668,2.3,1.071,2.386.9s-.823-.851-2.049-1.519-.746-.182-.839,0S46.738,783.063,47.964,783.731Z" transform="translate(-47.22 -374.465)" fill="#ffd037"/><path d="M53.82,812.467s8.483-.26,11.046-2.077,13.051-4,13.686-1.077,12.747,14.52,3.17,14.6-22.279-1.491-24.809-3.043S53.82,812.467,53.82,812.467Z" transform="translate(-50.176 -385.709)" fill="#bababa"/><path d="M81.887,826.6c-9.577.077-22.252-1.491-24.8-3.043-1.944-1.187-2.717-5.434-2.977-7.4h-.29s.552,6.843,3.093,8.4,15.232,3.109,24.8,3.054c2.761,0,3.717-1.005,3.667-2.463C85,826.013,83.942,826.565,81.887,826.6Z" transform="translate(-50.176 -389.413)" opacity="0.08"/><path d="M1060.89,683.7a6.47,6.47,0,0,0,2.115-3.192,2.84,2.84,0,0,0-1.48-3.258c-1.359-.519-2.811.425-3.91,1.375s-2.364,2.038-3.806,1.834a5.771,5.771,0,0,0,1.789-5.418,2.205,2.205,0,0,0-.5-1.1c-.751-.806-2.121-.458-3.021.177-2.872,2.016-3.673,5.92-3.689,9.427a17.754,17.754,0,0,1-.055-3.866,3.992,3.992,0,0,0-1.458-3.435,4.418,4.418,0,0,0-2.209-.525,4.6,4.6,0,0,0-3.612,1.027c-1.1,1.171-.812,3.143.144,4.418a14.263,14.263,0,0,0,3.739,2.993,8.282,8.282,0,0,1,2.667,2.546,2.665,2.665,0,0,1,.2.458h8.091a22.68,22.68,0,0,0,5-3.461Z" transform="translate(-491.857 -325.529)" fill="#1ed761"/><path d="M958.623,639.548s-7.76-26.361,1.453-45.746a41.608,41.608,0,0,0,3.369-26.107,70.241,70.241,0,0,0-3.7-12.255" transform="translate(-453.901 -272.685)" fill="none" stroke="#535461" stroke-miterlimit="10" stroke-width="2"/><path d="M964.037,528.509c0,3.225-5.849,12.592-5.849,12.592s-5.849-9.389-5.849-12.592a5.85,5.85,0,1,1,11.7,0Z" transform="translate(-452.456 -258.009)" fill="#6c63ff"/><path d="M981.473,558.314c-1.756,2.712-11.753,7.4-11.753,7.4s.182-11.046,1.933-13.746a5.848,5.848,0,0,1,9.821,6.352Z" transform="translate(-460.237 -269.931)" fill="#6c63ff"/><path d="M979,612.025c-2.883,1.453-13.874.447-13.874.447s5.727-9.433,8.61-10.891A5.848,5.848,0,1,1,979,612.026Z" transform="translate(-458.182 -293.062)" fill="#6c63ff"/><path d="M969.223,654.263c-2.6,1.922-13.6,2.761-13.6,2.761s4.048-10.267,6.627-12.189a5.849,5.849,0,0,1,6.959,9.389Z" transform="translate(-453.924 -312.259)" fill="#6c63ff"/><path d="M946.065,572.014c2.314,2.253,13.106,4.584,13.106,4.584s-2.64-10.72-4.97-12.968a5.845,5.845,0,1,0-8.146,8.384Z" transform="translate(-448.848 -275.612)" fill="#6c63ff"/><path d="M933.953,620.208c2.883,1.458,13.879.453,13.879.453s-5.727-9.439-8.588-10.891a5.849,5.849,0,0,0-5.269,10.438Z" transform="translate(-442.861 -296.761)" fill="#6c63ff"/><path d="M930.088,669.479c2.6,1.917,13.6,2.761,13.6,2.761s-4.054-10.272-6.627-12.194a5.849,5.849,0,1,0-6.953,9.389Z" transform="translate(-441.338 -318.925)" fill="#6c63ff"/><path d="M964.037,528.509c0,3.225-5.849,12.592-5.849,12.592s-5.849-9.389-5.849-12.592a5.85,5.85,0,1,1,11.7,0Z" transform="translate(-452.456 -258.009)" fill="#1ed761"/><path d="M981.473,558.314c-1.756,2.712-11.753,7.4-11.753,7.4s.182-11.046,1.933-13.746a5.848,5.848,0,0,1,9.821,6.352Z" transform="translate(-460.237 -269.931)" fill="#1ed761"/><path d="M979,612.025c-2.883,1.453-13.874.447-13.874.447s5.727-9.433,8.61-10.891A5.848,5.848,0,1,1,979,612.026Z" transform="translate(-458.182 -293.062)" fill="#1ed761"/><path d="M969.223,654.263c-2.6,1.922-13.6,2.761-13.6,2.761s4.048-10.267,6.627-12.189a5.849,5.849,0,0,1,6.959,9.389Z" transform="translate(-453.924 -312.259)" fill="#1ed761"/><path d="M946.065,572.014c2.314,2.253,13.106,4.584,13.106,4.584s-2.64-10.72-4.97-12.968a5.845,5.845,0,1,0-8.146,8.384Z" transform="translate(-448.848 -275.612)" fill="#1ed761"/><path d="M933.953,620.208c2.883,1.458,13.879.453,13.879.453s-5.727-9.439-8.588-10.891a5.849,5.849,0,0,0-5.269,10.438Z" transform="translate(-442.861 -296.761)" fill="#1ed761"/><path d="M930.088,669.479c2.6,1.917,13.6,2.761,13.6,2.761s-4.054-10.272-6.627-12.194a5.849,5.849,0,1,0-6.953,9.389Z" transform="translate(-441.338 -318.925)" fill="#1ed761"/><path d="M927.89,697.246s9.45-1.878,11.968-4.38,13.862-6.882,15.121-3.756,17.01,13.763,6.3,15.641-25.2,2.5-28.354,1.248S927.89,697.246,927.89,697.246Z" transform="translate(-441.509 -332.046)" fill="#bababa"/><path d="M961.281,711.006c-10.709,1.878-25.2,2.5-28.354,1.254-2.4-.955-4.065-5.523-4.722-7.66l-.315.066s1.889,7.506,5.037,8.754,17.673.63,28.354-1.248c3.093-.552,3.976-1.817,3.64-3.424C964.661,709.791,963.584,710.6,961.281,711.006Z" transform="translate(-441.509 -339.466)" opacity="0.08"/><rect width="146.141" height="146.141" rx="18.95" transform="translate(217.809 70.721)" fill="#73f4cc" opacity="0.26"/><rect width="71.902" height="71.902" rx="18.95" transform="translate(239.255 96.015)" fill="#1ed761" opacity="0.1"/><rect width="71.902" height="71.902" rx="18.95" transform="translate(270.591 119.653)" fill="#1ed761" opacity="0.1"/></g></svg>