<svg xmlns="http://www.w3.org/2000/svg" xmlns:xlink="http://www.w3.org/1999/xlink" width="387.288" height="242.182" viewBox="0 0 387.288 242.182"><defs><style>.a,.f{fill:none;stroke:#535461;stroke-miterlimit:10;}.a{stroke-width:2px;}.b{fill:#4c4c4c;}.c,.e{fill:#3da389;}.c{opacity:0.3;}.d{fill:#fff;opacity:0.4;}.g{fill:#6c63ff;}.h{fill:#51c3a6;}.i{fill:#252223;}.i,.q{opacity:0.1;}.j{fill:url(#a);}.k{fill:url(#b);}.l{fill:url(#c);}.m{fill:url(#d);}.n{fill:#333;}.o{fill:#535461;}.p{opacity:0.03;}.r{fill:#fda57d;}.s{fill:#4d8af0;}.t{fill:#ff2f45;}.u{fill:#f2f2f2;}.v{fill:#72351c;}.w{fill:#cbdae3;}.x{fill:#e9e9e9;}.y{fill:#f48681;}.z{opacity:0.05;}</style><linearGradient id="a" y1="0.5" x2="1" y2="0.5" gradientUnits="objectBoundingBox"><stop offset="0" stop-color="gray" stop-opacity="0.251"/><stop offset="0.54" stop-color="gray" stop-opacity="0.122"/><stop offset="1" stop-color="gray" stop-opacity="0.102"/></linearGradient><linearGradient id="b" x1="0" y1="0.506" y2="0.506" xlink:href="#a"/><linearGradient id="c" x1="0" y1="0.494" x2="1.008" y2="0.494" xlink:href="#a"/><linearGradient id="d" x1="0" y1="0.506" x2="1.008" y2="0.506" xlink:href="#a"/></defs><path class="a" d="M-10.73,747.34" transform="translate(10.73 -520.429)"/><path class="b" d="M512.986,669.849c-2.534,1.306-5.189,2.434-7.808,3.559-9.677,4.086-19.5,8.207-29.895,9.609-19.524,2.6-39.671-4.52-58.853-.078-16.068,3.708-29.357,15.072-45.055,20.133a73.2,73.2,0,0,1-22.556,3.274h-.989q-1.424-.018-2.826-.071a153.419,153.419,0,0,1-23.186-2.911c-24.047-4.627-48.522-13.107-66.907-28.72C308.443,664.863,418.715,649.851,512.986,669.849Z" transform="translate(-160.372 -464.163)"/><path class="c" d="M323.858,88.616V65.839H310.334V88.616H294.319V53.383H282.575V27.048h-9.609V0h-19.93V27.048h-9.609V53.383H232.039V21.709h-6.406V5.694h-3.915V21.709H198.941V122.782H181.5V112.1H170.826v10.677H153.388V88.616H122.07V65.839H108.546V88.616h-.712v43.774H93.6V106.767H76.516v25.624H62.28V53.383H51.248V27.048H10.677V53.383H0V192.536H339.873V88.616Z" transform="translate(47.415)"/><rect class="d" width="14.947" height="8.541" transform="translate(54.177 61.569)"/><rect class="d" width="14.947" height="8.541" transform="translate(102.578 70.11) rotate(180)"/><rect class="d" width="14.947" height="8.541" transform="translate(54.177 78.296)"/><rect class="d" width="14.947" height="8.541" transform="translate(102.578 86.837) rotate(180)"/><rect class="d" width="14.947" height="8.541" transform="translate(54.177 95.022)"/><rect class="d" width="14.947" height="8.541" transform="translate(102.578 103.564) rotate(180)"/><rect class="d" width="14.947" height="8.541" transform="translate(54.177 111.749)"/><rect class="d" width="14.947" height="8.541" transform="translate(102.578 120.29) rotate(180)"/><rect class="d" width="14.947" height="8.541" transform="translate(54.177 128.476)"/><rect class="d" width="14.947" height="8.541" transform="translate(102.578 137.017) rotate(180)"/><rect class="d" width="14.947" height="8.541" transform="translate(54.177 145.203)"/><rect class="d" width="14.947" height="8.541" transform="translate(102.578 153.744) rotate(180)"/><rect class="d" width="14.947" height="8.541" transform="translate(54.177 161.929)"/><rect class="d" width="14.947" height="8.541" transform="translate(102.578 170.471) rotate(180)"/><rect class="d" width="34.877" height="4.271" transform="translate(115.034 140.932)"/><rect class="d" width="34.877" height="4.271" transform="translate(115.034 147.338)"/><rect class="d" width="34.877" height="4.271" transform="translate(115.034 153.744)"/><rect class="d" width="34.877" height="4.271" transform="translate(206.141 143.067)"/><rect class="d" width="34.877" height="4.271" transform="translate(206.141 149.473)"/><rect class="d" width="34.877" height="4.271" transform="translate(206.141 155.879)"/><rect class="d" width="34.877" height="4.271" transform="translate(115.034 160.15)"/><rect class="d" width="34.877" height="4.271" transform="translate(115.034 166.556)"/><rect class="d" width="34.877" height="4.271" transform="translate(115.034 172.962)"/><rect class="d" width="9.609" height="12.456" transform="translate(162.723 96.802)"/><rect class="d" width="9.609" height="12.456" transform="translate(193.329 109.258) rotate(180)"/><rect class="d" width="9.609" height="12.456" transform="translate(162.723 116.732)"/><rect class="d" width="9.609" height="12.456" transform="translate(193.329 129.188) rotate(180)"/><rect class="d" width="9.609" height="12.456" transform="translate(162.723 136.661)"/><rect class="d" width="9.609" height="12.456" transform="translate(193.329 149.117) rotate(180)"/><rect class="d" width="9.609" height="12.456" transform="translate(162.723 156.591)"/><rect class="d" width="9.609" height="12.456" transform="translate(193.329 169.047) rotate(180)"/><rect class="d" width="12.812" height="16.371" transform="translate(246.356 29.895)"/><rect class="d" width="12.812" height="16.371" transform="translate(246.356 53.383)"/><rect class="d" width="12.812" height="16.371" transform="translate(246.356 76.872)"/><rect class="d" width="12.812" height="16.371" transform="translate(246.356 100.361)"/><rect class="d" width="12.812" height="16.371" transform="translate(246.356 123.849)"/><rect class="d" width="12.812" height="16.371" transform="translate(246.356 147.338)"/><rect class="d" width="47.689" height="13.88" transform="translate(286.75 63.348)"/><rect class="d" width="47.689" height="13.88" transform="translate(286.928 93.243)"/><rect class="d" width="47.689" height="13.88" transform="translate(287.106 123.137)"/><rect class="d" width="47.689" height="13.88" transform="translate(287.283 153.032)"/><rect class="d" width="6.406" height="13.524" transform="translate(58.092 34.521)"/><rect class="d" width="16.015" height="20.642" transform="translate(371.273 96.802)"/><rect class="d" width="16.015" height="20.642" transform="translate(371.273 126.696)"/><rect class="d" width="16.015" height="20.642" transform="translate(371.273 156.591)"/><path class="e" d="M158.438,584.946s-28.019,16.9,23.631,42.931c0,0,11.388-21.126-1.2-38.351a16.962,16.962,0,0,0-22-4.822Z" transform="translate(-93.346 -414.279)"/><path class="f" d="M173.08,588.3s23.976,18.346,23.307,43.287" transform="translate(-107.664 -417.989)"/><path class="a" d="M235.975,540.388s-8.78-29.809,1.648-51.75A47.073,47.073,0,0,0,241.43,459.1a79.185,79.185,0,0,0-4.182-13.88" transform="translate(-145.949 -325.83)"/><path class="g" d="M240.049,394.058c0,3.655-6.616,14.236-6.616,14.236s-6.616-10.595-6.616-14.236a6.616,6.616,0,1,1,13.228,0Z" transform="translate(-142.276 -288.516)"/><path class="g" d="M270.7,444.935C268.71,448,257.4,453.3,257.4,453.3s.206-12.488,2.192-15.556a6.616,6.616,0,0,1,11.1,7.189Z" transform="translate(-161.976 -319.157)"/><path class="g" d="M265,537.675c-3.263,1.644-15.7.509-15.7.509s6.481-10.677,9.744-12.321A6.615,6.615,0,1,1,265,537.676Z" transform="translate(-156.758 -377.315)"/><path class="g" d="M247.989,612.029c-2.936,2.171-15.389,3.153-15.389,3.153s4.584-11.616,7.52-13.791a6.616,6.616,0,1,1,7.869,10.638Z" transform="translate(-146.002 -425.586)"/><path class="g" d="M214.538,467.894c2.619,2.545,14.83,5.182,14.83,5.182s-2.989-12.125-5.609-14.673a6.616,6.616,0,1,0-9.218,9.488Z" transform="translate(-133.005 -333.044)"/><path class="g" d="M192.318,551.965c3.263,1.644,15.7.509,15.7.509s-6.481-10.677-9.744-12.321a6.615,6.615,0,1,0-5.958,11.813Z" transform="translate(-117.71 -386.52)"/><path class="g" d="M186.6,639.189c2.936,2.171,15.389,3.153,15.389,3.153s-4.584-11.62-7.523-13.791a6.616,6.616,0,1,0-7.869,10.638Z" transform="translate(-114.642 -443.08)"/><path class="h" d="M240.049,394.058c0,3.655-6.616,14.236-6.616,14.236s-6.616-10.595-6.616-14.236a6.616,6.616,0,1,1,13.228,0Z" transform="translate(-142.276 -288.516)"/><path class="h" d="M270.7,444.935C268.71,448,257.4,453.3,257.4,453.3s.206-12.488,2.192-15.556a6.616,6.616,0,0,1,11.1,7.189Z" transform="translate(-161.976 -319.157)"/><path class="h" d="M265,537.675c-3.263,1.644-15.7.509-15.7.509s6.481-10.677,9.744-12.321A6.615,6.615,0,1,1,265,537.676Z" transform="translate(-156.758 -377.315)"/><path class="h" d="M247.989,612.029c-2.936,2.171-15.389,3.153-15.389,3.153s4.584-11.616,7.52-13.791a6.616,6.616,0,1,1,7.869,10.638Z" transform="translate(-146.002 -425.586)"/><path class="h" d="M214.538,467.894c2.619,2.545,14.83,5.182,14.83,5.182s-2.989-12.125-5.609-14.673a6.616,6.616,0,1,0-9.218,9.488Z" transform="translate(-133.005 -333.044)"/><path class="h" d="M192.318,551.965c3.263,1.644,15.7.509,15.7.509s-6.481-10.677-9.744-12.321a6.615,6.615,0,1,0-5.958,11.813Z" transform="translate(-117.71 -386.52)"/><path class="h" d="M186.6,639.189c2.936,2.171,15.389,3.153,15.389,3.153s-4.584-11.62-7.523-13.791a6.616,6.616,0,1,0-7.869,10.638Z" transform="translate(-114.642 -443.08)"/><path class="a" d="M1006.025,518.758s-8.78-29.809,1.648-51.75a47.071,47.071,0,0,0,3.808-29.539,79.185,79.185,0,0,0-4.182-13.88" transform="translate(-641.948 -311.898)"/><path class="h" d="M1010.139,372.429c0,3.655-6.616,14.236-6.616,14.236s-6.616-10.595-6.616-14.236a6.616,6.616,0,1,1,13.228,0Z" transform="translate(-638.3 -274.585)"/><path class="h" d="M1040.746,422.8c-1.986,3.068-13.3,8.363-13.3,8.363s.207-12.488,2.192-15.556a6.616,6.616,0,1,1,11.1,7.189Z" transform="translate(-657.974 -304.721)"/><path class="h" d="M1035.058,516.045c-3.263,1.644-15.7.509-15.7.509s6.481-10.676,9.744-12.321a6.615,6.615,0,1,1,5.958,11.813Z" transform="translate(-652.763 -363.383)"/><path class="h" d="M1018.049,590.4c-2.936,2.171-15.389,3.153-15.389,3.153s4.584-11.616,7.52-13.791a6.616,6.616,0,0,1,7.869,10.638Z" transform="translate(-642.007 -411.654)"/><path class="h" d="M984.789,446.436c2.619,2.545,14.83,5.182,14.83,5.182s-2.989-12.125-5.609-14.673a6.617,6.617,0,0,0-9.221,9.492Z" transform="translate(-629.204 -319.294)"/><path class="h" d="M962.682,530.471c3.264,1.644,15.7.509,15.7.509s-6.481-10.677-9.744-12.321a6.616,6.616,0,0,0-5.954,11.812Z" transform="translate(-614.008 -372.723)"/><path class="h" d="M956.656,617.559c2.936,2.171,15.388,3.153,15.388,3.153s-4.584-11.616-7.52-13.791a6.616,6.616,0,1,0-7.869,10.638Z" transform="translate(-610.647 -429.148)"/><path class="a" d="M897.638,590.31s-4.719-16.015.886-27.809a25.3,25.3,0,0,0,2.046-15.872,42.564,42.564,0,0,0-2.246-7.449" transform="translate(-573.164 -386.351)"/><path class="h" d="M899.838,511.789c0,1.964-3.559,7.655-3.559,7.655s-3.559-5.694-3.559-7.655a3.559,3.559,0,1,1,7.118,0Z" transform="translate(-571.193 -366.415)"/><path class="h" d="M916.3,538.606c-1.068,1.648-7.146,4.495-7.146,4.495s.111-6.712,1.178-8.36a3.559,3.559,0,1,1,5.968,3.865Z" transform="translate(-581.776 -382.356)"/><path class="h" d="M913.238,588.943c-1.755.883-8.438.274-8.438.274s3.484-5.737,5.235-6.62a3.559,3.559,0,0,1,3.2,6.349Z" transform="translate(-578.974 -414.112)"/><path class="h" d="M904.091,628.962c-1.58,1.167-8.271,1.694-8.271,1.694s2.463-6.242,4.043-7.41a3.559,3.559,0,0,1,4.228,5.716Z" transform="translate(-573.19 -440.114)"/><path class="h" d="M886,551.229c1.424,1.367,7.969,2.787,7.969,2.787s-1.605-6.516-3.014-7.883a3.559,3.559,0,1,0-4.954,5.1Z" transform="translate(-566.093 -390.104)"/><path class="h" d="M874.422,596.633c1.755.883,8.438.274,8.438.274s-3.484-5.737-5.235-6.62a3.559,3.559,0,0,0-3.2,6.349Z" transform="translate(-558.234 -419.066)"/><path class="h" d="M871.309,643.534c1.58,1.167,8.271,1.694,8.271,1.694s-2.477-6.246-4.043-7.413a3.559,3.559,0,0,0-4.228,5.719Z" transform="translate(-556.544 -449.486)"/><path class="i" d="M341.835,151.224h-2.448a1.715,1.715,0,1,0,0-3.427H319.553a1.715,1.715,0,0,0,0,3.427H322a1.715,1.715,0,1,0,0,3.427h-3.427a1.715,1.715,0,1,0,0,3.427h19.834a1.715,1.715,0,1,0,0-3.427h3.427a1.715,1.715,0,1,0,0-3.427Z" transform="translate(-200.223 -134.255)"/><path class="i" d="M587.835,272.224h-2.449a1.715,1.715,0,1,0,0-3.427H565.553a1.715,1.715,0,0,0,0,3.427H568a1.715,1.715,0,1,0,0,3.427h-3.427a1.715,1.715,0,1,0,0,3.427h19.834a1.715,1.715,0,1,0,0-3.427h3.427a1.715,1.715,0,1,0,0-3.427Z" transform="translate(-358.675 -212.193)"/><path class="i" d="M1006.835,114.224h-2.448a1.715,1.715,0,1,0,0-3.427H984.553a1.715,1.715,0,0,0,0,3.427H987a1.715,1.715,0,1,0,0,3.427h-3.427a1.715,1.715,0,1,0,0,3.427h19.834a1.715,1.715,0,0,0,0-3.427h3.427a1.715,1.715,0,1,0,0-3.427Z" transform="translate(-628.558 -110.423)"/><path class="j" d="M503.226,354.367h.078s-12.488-34.318-15.986-38.97c0,0-3.662-2.164-3.495-5.826l-4.495-21.809s.068-.068.181-.192l.1-.107.11-.128a10.45,10.45,0,0,0,1.491-2.345l.071-.164a8.977,8.977,0,0,0,.42-1.178,1.242,1.242,0,0,0,.957-.05v-.327h0s-.043-1.292-.046-3.313v-1.826c.139-.5.256-1.029.356-1.591l-.182-.085v-.082l-.153-.071c.125-4.787.53-10.9,1.7-15.072q.061-.221.128-.438c1.384-4.552,1.424-10.107,1.779-14.8a15.073,15.073,0,0,1,.712,1.819,2.783,2.783,0,0,1,.6-.509l1.4,11.164V271.63s-2.331,16.983,4.982,13.819,2-14.819,2-14.819,0-6.491,1-9.823c.658-2.192.235-9.282-.135-13.88.712.125,1.132.224,1.132.224a7.789,7.789,0,0,0,.217-2.039c.153-7.677-9.314-20.044-13.168-24.763a11.065,11.065,0,0,0-4.445-3.915l-7.406-3.587s-3.5-.854-4.861-3.559a.661.661,0,0,0-.036-.139q.231-.1.456-.224a8.207,8.207,0,0,0,2.9-2.328,20.164,20.164,0,0,0,3.05-6.958,27.79,27.79,0,0,0,1.587-8.808c-.114-3-1.374-6.111-3.915-7.7-2.171-1.36-5.2-1.616-6.548-3.794a8.39,8.39,0,0,0-1.068-1.758.406.406,0,0,0-.327-.42l-3.73-.733a.406.406,0,0,0-.477.32v.053a22.557,22.557,0,0,0-9.584,2.434,21.8,21.8,0,0,0-3.032,1.779c-1.37.968-2.719,2.253-2.915,3.915-.1.829.1,1.68-.064,2.491-.452,2.174-3.367,3.591-2.94,5.773.288,1.481,1.964,2.118,3.534,2.135a11.823,11.823,0,0,0,8.986,14.762,34.137,34.137,0,0,1,2.989,5.089c-1.918,1.822-5.936,6.05-3.473,7.474l-5.125,12.663.5,13.05-2.16,1.929.473.591c-2.42,2.819-8.022,8.979-12.118,10.62a12.653,12.653,0,0,0-1.708.84,6.894,6.894,0,0,1-2.452.961,6.763,6.763,0,0,0-1.125.221l-.979-2.029a1.459,1.459,0,0,0-1.95-.68l-.6.288h0l-1.424.687-.594.288h0l-.448.217a1.459,1.459,0,0,0-.68,1.947l1.185,2.456c-1.683,1.484-2.509,3.256-.213,4.908a4.982,4.982,0,0,0,3.043.961l.712,1.491a1.459,1.459,0,0,0,1.95.68l1.043-.505L433,273.26a1.459,1.459,0,0,0,.68-1.95l-.591-1.228a24.086,24.086,0,0,0,3.616-3.47,22.9,22.9,0,0,1,4.829-2.331c1.185-.281,5.338-3.011,7.915-4.74l.733,19.218a4.075,4.075,0,0,1-.562.69l.573-.406v.142a3.19,3.19,0,0,1-.246.263l.249-.178v.231a3.211,3.211,0,0,1-.26.278l.263-.185.107,2.018,1.253-2.078.078,2.078.292-.484c-3.516,5.975-8.1,14.773-10.545,23.624,0,0-3.829,6.659-3.331,13.485l-6.993,33.809.135.05c-2.278,1.644-7.079,4.659-11.787,4.78,0,0-11.321-.335-8.157,2.164s31.3,6.16,31.3,6.16l1.068-8.417.249.092v-.132l.356.132s-.68-4.185,1.811-6.516,8.324-25.98,7.83-29.635a146.414,146.414,0,0,1,10.064-20.079l6.577,16.912,7.324,12.652s9.744,21.667,9.431,26.492c-2.046,2.491-5.694,6.406-8.431,6.3,0,0-11.154,2.164-3.495,4.164s30.133-5.481,30.133-5.481ZM454.469,276.9l.068-.039c-.356.537-.712,1.132-1.117,1.779Z" transform="translate(-260.713 -152.692)"/><path class="k" d="M519.3,465.94c-.274.2-.424.31-.424.31A1.81,1.81,0,0,0,519.3,465.94Z" transform="translate(-330.398 -339.176)"/><path class="l" d="M520.233,466.88c-.274.2-.423.31-.423.31A1.8,1.8,0,0,0,520.233,466.88Z" transform="translate(-330.997 -339.781)"/><path class="m" d="M520.233,465.94c-.274.2-.423.31-.423.31A1.8,1.8,0,0,0,520.233,465.94Z" transform="translate(-330.997 -339.176)"/><path class="n" d="M599.511,668.473s-5.844,8.278-9.741,8.114c0,0-10.876,2.11-3.409,4.057s29.379-5.356,29.379-5.356l-2.605-8.488Z" transform="translate(-372.177 -468.552)"/><path class="o" d="M554.62,471.744l8.278,21.264,7.161,12.353s9.819,21.83,9.171,26.051l15.659-2.516s-12.175-33.453-15.581-37.98c0,0-3.559-2.11-3.409-5.694l-4.381-21.264s4.27-4.114,1.879-9.253a8.642,8.642,0,0,0-.42-.8c-3.274-5.52-15.6-2.449-15.6-2.449Z" transform="translate(-353.419 -329.299)"/><path class="p" d="M554.62,471.744l8.278,21.264,7.161,12.353s9.819,21.83,9.171,26.051l15.659-2.516s-12.175-33.453-15.581-37.98c0,0-3.559-2.11-3.409-5.694l-4.381-21.264s4.27-4.114,1.879-9.253a8.642,8.642,0,0,0-.42-.8c-3.274-5.52-15.6-2.449-15.6-2.449Z" transform="translate(-353.419 -329.299)"/><g class="q" transform="translate(210.849 121.314)"><path d="M596.756,490.928s-3.559-2.11-3.409-5.694l-4.381-21.264s4.271-4.114,1.879-9.253a8.581,8.581,0,0,0-.42-.8c-1.573-2.676-5.289-3.331-8.694-3.292,3.267.028,6.7.744,8.207,3.292a8.61,8.61,0,0,1,.42.8c2.381,5.153-1.879,9.253-1.879,9.253l4.381,21.275c-.164,3.559,3.409,5.694,3.409,5.694,3.409,4.545,15.581,37.98,15.581,37.98l-15.168,2.438v.078l15.659-2.516S600.165,495.473,596.756,490.928Z" transform="translate(-581.73 -450.625)"/></g><path class="n" d="M435.335,661.47s-6.491,5.52-12.812,5.694c0,0-11.033-.324-7.954,2.11s30.514,6.007,30.514,6.007l1.221-9.5Z" transform="translate(-262.861 -465.119)"/><g class="q" transform="translate(171.335 118.785)"><path d="M495.7,445.61s-10.712,15.1-14.947,30.354c0,0-3.733,6.491-3.246,13.147l-6.8,32.952,12.5,4.708s-.648-4.057,1.779-6.331,8.114-25.321,7.63-28.891c0,0,7.79-19.478,15.581-27.108s11.67-9.388,12.812-15.976C521.008,448.464,502.676,439.6,495.7,445.61Z" transform="translate(-470.7 -443.521)"/></g><path class="o" d="M494.732,445.61s-10.712,15.1-14.947,30.354c0,0-3.733,6.491-3.246,13.147l-6.819,32.952,12.5,4.708s-.648-4.057,1.779-6.331,8.114-25.321,7.63-28.891c0,0,7.79-19.478,15.581-27.108s11.67-9.388,12.812-15.976C520.053,448.464,501.721,439.6,494.732,445.61Z" transform="translate(-298.734 -324.736)"/><g class="q" transform="translate(183.103 118.623)"><path d="M523.59,443.067c8.047.1,18.069,4.94,18.069,4.94-1.146,6.587-5.022,8.346-12.812,15.976s-15.584,27.1-15.584,27.1c.488,3.559-5.192,26.62-7.63,28.891-2.135,1.979-1.9,5.306-1.812,6.139l.512.192s-.648-4.057,1.779-6.331,8.125-25.332,7.637-28.891c0,0,7.79-19.478,15.581-27.108S541,454.591,542.143,448C542.146,448.025,531.712,442.968,523.59,443.067Z" transform="translate(-503.766 -443.066)"/></g><path class="r" d="M472.307,383.26S464.56,392.908,459.331,395a12.354,12.354,0,0,0-1.665.819,6.722,6.722,0,0,1-2.392.936,5.86,5.86,0,0,0-1.811.477c-2.719,1.253-8.99,4.626-4.851,7.616,5.192,3.733,12.175-4.869,12.175-4.869a22.341,22.341,0,0,1,4.708-2.274c1.744-.417,9.734-6,9.734-6Z" transform="translate(-284.252 -285.921)"/><path class="s" d="M393.7,268.03l-3.082,2.762,4.545,5.68Z" transform="translate(-204.188 -172.641)"/><g class="q" transform="translate(186.432 95.389)"><path d="M393.7,268.03l-3.082,2.762,4.545,5.68Z" transform="translate(-390.62 -268.03)"/></g><path class="t" d="M526.948,287s-7.388,6.331-4.3,8.114l-4.982,12.335,1.719,45.123,7.043-11.687-4.812-25.321s-1.374-15.1,2.577-18.666l3.78-7.474Z" transform="translate(-329.619 -223.919)"/><g class="q" transform="translate(189.35 63.081)"><path d="M530.6,287s-7.388,6.331-4.3,8.114l-4.983,12.335,1.719,45.123,7.043-11.687-4.812-25.321s-1.374-15.1,2.577-18.666l3.78-7.474Z" transform="translate(-521.32 -287)"/></g><path class="r" d="M527.71,253.314s6.007,7.3,5.844,11.524,11.364-7.3,11.364-7.3-4.381-5.356-3.246-11.033S527.71,253.314,527.71,253.314Z" transform="translate(-336.086 -196.881)"/><path class="r" d="M623.95,367.278l1.623,12.986v12.812s-2.274,16.556,4.869,13.474,1.947-14.446,1.947-14.446,0-6.331.975-9.577-.5-17.527-.5-17.527Z" transform="translate(-398.075 -274.159)"/><path class="u" d="M539.118,285.2s-4.381,4.221-6.655,2.758l-3.118,7.748a35.585,35.585,0,0,0-2.534,14.926l1.11,29.268,4.869-.648,1.623-27.759,2.434-16.88Z" transform="translate(-335.483 -222.759)"/><g class="q" transform="translate(188.72 57.978)"><path d="M538.12,272.66s-5.765,3.975-7.378,7.385c0,0-.164,3.733-1.459,5.356s-2.6,9.741-2.922,19.478-1.779,22.724-1.779,22.724-2.434,12.659-5.032,13.958c0,0,12.011-9.089,17.855-6.007s12.5,10.552,14.445,9.413c0,0-.47-14.236,1.662-21.812q.061-.217.125-.424c2.274-7.474.811-17.691,3.409-22.065a68.089,68.089,0,0,0-1.5-13.858,10.708,10.708,0,0,0-5.73-6.993l-7.217-3.495S538.768,275.742,538.12,272.66Z" transform="translate(-519.55 -272.66)"/></g><g class="q" transform="translate(189.037 57.978)"><path d="M538.693,272.66s-5.438,4.3-7.061,7.709c0,0-.164,3.733-1.459,5.356s-2.6,9.741-2.922,19.478-1.779,22.724-1.779,22.724-2.434,12.659-5.032,13.958c0,0,12.011-9.089,17.855-6.007s12.5,10.552,14.445,9.413c0,0-.47-14.236,1.662-21.812q.06-.217.125-.423c2.274-7.474.811-17.691,3.409-22.065a68.1,68.1,0,0,0-1.5-13.858,10.709,10.709,0,0,0-5.73-6.993l-7.217-3.495S539.341,275.742,538.693,272.66Z" transform="translate(-520.44 -272.66)"/></g><path class="t" d="M538.612,272.43s-5.356,4.057-6.979,7.474c0,0-.164,3.733-1.459,5.356s-2.6,9.741-2.922,19.478-1.78,22.724-1.78,22.724-2.434,12.659-5.032,13.958c0,0,12.011-9.089,17.855-6.007s12.488,10.534,14.438,9.41c0,0-.47-14.235,1.662-21.812q.06-.217.125-.424c2.274-7.474.811-17.691,3.409-22.065a68.1,68.1,0,0,0-1.5-13.858,10.708,10.708,0,0,0-5.73-6.993l-7.217-3.495S539.829,275.27,538.612,272.43Z" transform="translate(-331.403 -214.534)"/><g class="q" transform="translate(212.979 66.246)"><path d="M596.8,297.038s16.474,18.748,14.2,27.674c0,0-8.442-1.947-10.712.648a18.57,18.57,0,0,0-7.143-9.413C587.781,312.54,582.834,290.706,596.8,297.038Z" transform="translate(-587.715 -295.893)"/></g><path class="t" d="M596.8,296.128S613.269,314.876,611,323.8c0,0-8.442-1.947-10.712.648a18.571,18.571,0,0,0-7.143-9.413C587.781,311.63,582.834,289.8,596.8,296.128Z" transform="translate(-374.735 -229.06)"/><g class="q" transform="translate(192.276 48.937)"><path d="M543.256,251.589c-.256-1.31-.043-1.424.242-2.847,1.135-5.694-13.958,6.819-13.958,6.819s.84,1.021,1.883,2.523a11.572,11.572,0,0,0,2.338.238C537.889,258.326,541.216,254.842,543.256,251.589Z" transform="translate(-529.54 -247.256)"/></g><ellipse class="r" cx="11.524" cy="11.524" rx="11.524" ry="11.524" transform="translate(184.322 36.144)"/><g class="q" transform="translate(181.263 26.655)"><path d="M502.825,202.506c-1.7.228-3.861-.356-4.189-2.018-.413-2.135,2.427-3.506,2.869-5.627.164-.8-.032-1.626.064-2.431.192-1.626,1.505-2.876,2.847-3.822a21.855,21.855,0,0,1,14.535-3.872,3.264,3.264,0,0,1,1.8.569,6.677,6.677,0,0,1,1.157,1.822c1.317,2.135,4.271,2.374,6.385,3.7,2.491,1.548,3.7,4.587,3.815,7.506a26.836,26.836,0,0,1-1.548,8.588,19.555,19.555,0,0,1-2.975,6.783c-1.552,1.95-4.089,3.317-6.506,2.73,1.107-.8.3-2.648-.9-3.3s-2.687-.762-3.712-1.658-1.331-2.363-1.666-3.7a9.749,9.749,0,0,0-2.26-4.627C510.128,200.748,505.782,202.107,502.825,202.506Z" transform="translate(-498.595 -184.646)"/></g><path class="v" d="M503.735,202.056c-1.7.228-3.861-.356-4.189-2.018-.413-2.135,2.427-3.505,2.868-5.627.164-.8-.032-1.626.064-2.431.192-1.626,1.506-2.876,2.847-3.822a21.855,21.855,0,0,1,14.534-3.872,3.263,3.263,0,0,1,1.8.569,6.671,6.671,0,0,1,1.156,1.822c1.317,2.135,4.271,2.374,6.385,3.7,2.491,1.548,3.7,4.587,3.815,7.506a26.839,26.839,0,0,1-1.548,8.588,19.556,19.556,0,0,1-2.975,6.783c-1.552,1.95-4.089,3.317-6.505,2.73,1.107-.8.3-2.648-.9-3.3s-2.687-.762-3.712-1.658-1.327-2.363-1.683-3.7a9.751,9.751,0,0,0-2.26-4.627C511.041,200.294,506.692,201.657,503.735,202.056Z" transform="translate(-317.919 -157.702)"/><path class="w" d="M544.6,189.712l1.043-5.338a.4.4,0,0,0-.313-.466l-3.683-.712a.4.4,0,0,0-.466.313l-1.043,5.338-3.559,13.2,6.531,1.274Z" transform="translate(-341.799 -157.052)"/><g class="q" transform="translate(191.706 42.233)"><ellipse cx="5.68" cy="5.68" rx="5.68" ry="5.68"/></g><ellipse class="w" cx="5.68" cy="5.68" rx="5.68" ry="5.68" transform="translate(191.706 42.393)"/><ellipse class="x" cx="3.723" cy="3.723" rx="3.723" ry="3.723" transform="translate(193.664 44.351)"/><ellipse class="y" cx="1.135" cy="1.135" rx="1.135" ry="1.135" transform="translate(196.251 46.938)"/><rect class="z" width="4.545" height="0.164" transform="translate(198.437 31.305) rotate(11.05)"/><rect class="w" width="5.52" height="13.474" rx="2.76" transform="translate(162.787 110.481) rotate(-25.74)"/><g class="q" transform="translate(162.787 108.084)"><rect width="5.52" height="13.474" rx="2.76" transform="translate(0 2.397) rotate(-25.74)"/></g><rect class="w" width="5.68" height="13.474" rx="2.84" transform="translate(163.227 110.269) rotate(-25.74)"/><rect class="u" width="4.292" height="10.225" transform="translate(164.271 110.846) rotate(-25.74)"/><ellipse class="u" cx="0.488" cy="0.648" rx="0.488" ry="0.648" transform="translate(170.493 119.742) rotate(-25.74)"/></svg>