<svg xmlns="http://www.w3.org/2000/svg" xmlns:xlink="http://www.w3.org/1999/xlink" width="552.724" height="371.753" viewBox="0 0 552.724 371.753"><defs><linearGradient id="a" x1="0.081" y1="1" x2="0.081" gradientUnits="objectBoundingBox"><stop offset="0" stop-color="gray" stop-opacity="0.251"/><stop offset="0.54" stop-color="gray" stop-opacity="0.122"/><stop offset="1" stop-color="gray" stop-opacity="0.102"/></linearGradient></defs><ellipse cx="68.506" cy="4.824" rx="68.506" ry="4.824" transform="translate(303.861 362.105)" fill="#1ed761" opacity="0.1"/><path d="M579.874,283.783A129.321,129.321,0,0,1,430.083,411.4H225.189a175.646,175.646,0,0,1-23.88,1.631q-8.6,0-17-.82A174.166,174.166,0,1,1,367.034,185.222a129.238,129.238,0,0,1,212.84,98.561Z" transform="translate(-27.15 -64.71)" fill="#fff" opacity="0.28"/><path d="M538.907,563.457a129.442,129.442,0,0,1-100.144,25.786H233.869a175.641,175.641,0,0,1-23.88,1.631q-8.6,0-17-.82A174.241,174.241,0,0,1,43.92,469.343C60.6,433.7,103.462,408.33,153.712,408.33c48.967,0,90.939,24.093,108.456,58.312a145.608,145.608,0,0,1,26.143-2.349c50.752,0,93.964,25.892,110.28,62.075a142.62,142.62,0,0,1,41.687-6.132C481.671,520.255,518.051,537.463,538.907,563.457Z" transform="translate(-35.83 -242.556)" fill="#fff" opacity="0.28"/><path d="M277.961,687.219c0,12.36-4.742,19.071-12.51,22.708a173.228,173.228,0,0,1-81.531-29.708,46.833,46.833,0,0,1,3.536-12.182l22.091,6.87-19.674-11.578A47.341,47.341,0,0,1,199.932,651.3l37.114,11.54-29.076-17.078a47.279,47.279,0,0,1,67.2,25.429l.1.289c.077.217.154.434.227.656q.391,1.153.719,2.33c.082.28.159.56.227.844s.14.54.2.811.116.482.164.7c.034.145.068.289.1.434.053.232.1.482.145.7.068.338.135.68.193,1.018s.121.7.174,1.057.116.782.164,1.177.087.7.121,1.057c0,.111.024.217.034.328.034.309.058.618.082.926a1.019,1.019,0,0,1,0,.121q.043.579.072,1.158t.043,1.129a.811.811,0,0,1,0,.111C277.956,686.423,277.961,686.819,277.961,687.219Z" transform="translate(-108.289 -362.43)" fill="#1ed761"/><path d="M306.717,719.722c0,12.36-4.742,19.071-12.51,22.708a172.919,172.919,0,0,1-54.727-14.589l.791-.526c3.575-2.369,7.27-4.791,11.477-5.6,3.7-.709,7.516-.111,11.274-.323A26.374,26.374,0,0,0,280.3,713.48c2.687-2.779,4.824-6.19,8.033-8.312,3.483-2.287,7.9-2.779,12.032-2.21a31.884,31.884,0,0,1,3.56.728l.1.289c.077.217.154.434.227.656q.391,1.153.719,2.33c.082.28.159.56.227.844s.14.54.2.811.116.482.164.7c.034.145.068.289.1.434.053.232.1.482.145.7.068.338.135.68.193,1.018s.121.7.174,1.057.116.782.164,1.177.087.7.121,1.057c0,.111.024.217.034.328.034.309.058.618.082.926a1.026,1.026,0,0,1,0,.121q.043.579.072,1.158t.043,1.129a.821.821,0,0,1,0,.111C306.712,718.926,306.717,719.322,306.717,719.722Z" transform="translate(-137.045 -394.933)" opacity="0.1"/><path d="M939.344,739.291a17.846,17.846,0,0,1-.386,3.744c-.048.232-.1.458-.154.68-1.37,5.495-5.234,9.514-9.846,9.769h-.482c-4.877,0-9-4.207-10.363-10-.039-.154-.072-.309-.106-.482a17.857,17.857,0,0,1-.386-3.744c0-7.849,4.858-14.208,10.855-14.208S939.344,731.442,939.344,739.291Z" transform="translate(-488.027 -406.48)" fill="#3f3d56"/><path d="M939.365,739.317a17.85,17.85,0,0,1-.386,3.744c-.048.232-.1.458-.154.68h-.482a22.073,22.073,0,0,1-3.551-.482,21.662,21.662,0,0,1-3.165.724,22.1,22.1,0,0,1-2.48.232h-.839a22.4,22.4,0,0,1-2.974-.2,21.8,21.8,0,0,1-4.663-1.158,21.978,21.978,0,0,1-2.518.675c-.039-.154-.072-.309-.106-.482a17.858,17.858,0,0,1-.386-3.744c0-7.849,4.858-14.208,10.855-14.208S939.365,731.468,939.365,739.317Z" transform="translate(-488.048 -406.506)" opacity="0.1"/><path d="M934.6,665.4a21.97,21.97,0,0,0-2.364-9.943l-12.765,3.97,11.207-6.585A22.052,22.052,0,0,0,914.1,643.39a22.022,22.022,0,0,0-1.722-2.277l-18.333,5.707,15.037-8.843a22.062,22.062,0,0,0-34.735,11.767l15.7,18.077L873.02,655.5a22.067,22.067,0,0,0,19.746,38.932,22.154,22.154,0,0,0,14.126.391A22.086,22.086,0,0,0,933.7,673.258c0-.482,0-.965-.048-1.447a22.013,22.013,0,0,0,.95-6.412Z" transform="translate(-460.129 -359.053)" fill="#1ed761"/><path d="M934.186,702.753a58.811,58.811,0,0,0-20.426-.26c-7.666,1.269-15.5,4.057-23,2.021-4.4-1.2-8.2-3.966-12.5-5.5a23.726,23.726,0,0,0-12.905-.772,22.076,22.076,0,0,0,27.349,29.457,22.153,22.153,0,0,0,14.126.391,22.086,22.086,0,0,0,26.833-21.565c0-.482,0-.965-.048-1.447A21.8,21.8,0,0,0,934.186,702.753Z" transform="translate(-460.094 -392.317)" opacity="0.1"/><rect width="4.274" height="35.227" rx="2.137" transform="translate(341.056 120.811)" fill="#3a3768"/><rect width="2.398" height="11.598" rx="1.199" transform="translate(199.009 93.211)" fill="#3a3768"/><rect width="2.702" height="20.185" rx="1.351" transform="translate(198.922 114.448)" fill="#3a3768"/><rect width="2.571" height="20.359" rx="1.286" transform="translate(198.965 141.696)" fill="#3a3768"/><rect width="142.993" height="290.613" rx="13" transform="translate(200.369 54.886)" fill="#3f3d56"/><rect width="19.968" height="4.052" rx="2.026" transform="translate(258.073 63.565)" fill="#e6e8ec"/><circle cx="2.301" cy="2.301" r="2.301" transform="translate(281.056 63.29)" fill="#e6e8ec"/><path d="M574.746,194.17H558.391v1.973a9.35,9.35,0,0,1-9.349,9.35h-52.19a9.35,9.35,0,0,1-9.35-9.35V194.17H472.142a11.352,11.352,0,0,0-11.352,11.356V458.288a11.352,11.352,0,0,0,11.352,11.356h102.6A11.357,11.357,0,0,0,586.1,458.288V205.526a11.356,11.356,0,0,0-11.357-11.356Z" transform="translate(-251.587 -131.714)" fill="#fff"/><g transform="translate(0 12)"><ellipse cx="11.65" cy="11.65" rx="11.65" ry="11.65" transform="translate(229.386 156.053)" fill="#f6f6f6"/><path d="M498.68,407.528V411.9h2.913l3.641,3.8V403.72l-3.641,3.808Z" transform="translate(-260.92 -242.009)" fill="#6e6e6e"/><ellipse cx="11.65" cy="11.65" rx="11.65" ry="11.65" transform="translate(260.331 156.053)" fill="#f6f6f6"/><path d="M583.109,411.689a1.391,1.391,0,1,0,1.383,1.391A1.391,1.391,0,0,0,583.109,411.689Zm-4.077-12.509a1.391,1.391,0,1,0,1.38,1.391,1.391,1.391,0,0,0-1.38-1.391Zm0,4.172a1.391,1.391,0,1,0,1.38,1.387A1.391,1.391,0,0,0,579.032,403.352Zm0,4.169a1.391,1.391,0,1,0,1.38,1.391,1.391,1.391,0,0,0-1.38-1.391Zm8.155-5.559a1.391,1.391,0,1,0-1.383-1.391A1.391,1.391,0,0,0,587.187,401.961Zm-4.078,5.559a1.391,1.391,0,1,0,1.383,1.391A1.391,1.391,0,0,0,583.109,407.521Zm4.078,0a1.391,1.391,0,1,0,1.383,1.391A1.391,1.391,0,0,0,587.187,407.521Zm0-4.169a1.391,1.391,0,1,0,1.383,1.387A1.391,1.391,0,0,0,587.187,403.352Zm-4.078,0a1.391,1.391,0,1,0,1.383,1.387,1.391,1.391,0,0,0-1.383-1.387Zm0-4.172a1.391,1.391,0,1,0,1.383,1.391A1.391,1.391,0,0,0,583.109,399.18Z" transform="translate(-311.128 -239.123)" fill="#6e6e6e"/><g transform="translate(229.386 191.003)"><path d="M11.65,0A11.65,11.65,0,1,1,0,11.65,11.65,11.65,0,0,1,11.65,0Z" transform="translate(0 0)" fill="#f6f6f6"/><path d="M503.6,507.369h-4.733V512.1h-1.456v-4.733H492.68v-1.456h4.733V501.18h1.456v4.733H503.6Z" transform="translate(-486.491 -494.991)" fill="#6e6e6e"/></g><ellipse cx="11.65" cy="11.65" rx="11.65" ry="11.65" transform="translate(291.277 156.053)" fill="#f6f6f6"/><path d="M666.232,400.67a6.64,6.64,0,0,0-6.553,6.728v5.232a2.214,2.214,0,0,0,2.184,2.243h2.184v-6.011h-2.913v-1.456a5.1,5.1,0,1,1,10.194,0v1.456h-2.913v6.007H670.6a2.21,2.21,0,0,0,2.184-2.243V407.4a6.641,6.641,0,0,0-6.553-6.728Z" transform="translate(-363.305 -240.07)" fill="#6e6e6e"/><g transform="translate(260.331 191.003)"><path d="M11.65,0A11.65,11.65,0,1,1,0,11.65,11.65,11.65,0,0,1,11.65,0Z" transform="translate(0 0)" fill="#f6f6f6"/><path d="M583.688,506.212V503.3a.841.841,0,0,0-.852-.83H572.518a.841.841,0,0,0-.848.83v8.3a.845.845,0,0,0,.848.83h10.314a.845.845,0,0,0,.852-.83v-2.913l3.277,3.32v-9.12Z" transform="translate(-567.669 -495.811)" fill="#6e6e6e"/></g><ellipse cx="11.65" cy="11.65" rx="11.65" ry="11.65" transform="translate(291.277 191.003)" fill="#f6f6f6"/><path d="M663.75,511.065a4.165,4.165,0,0,1-4.11,0,4.862,4.862,0,0,0-2.96,3.55h10.03A4.855,4.855,0,0,0,663.75,511.065ZM661.7,503.42a3.615,3.615,0,1,0,3.612,3.611A3.615,3.615,0,0,0,661.7,503.42Zm0,6.364a2.789,2.789,0,0,1-2.527-1.726h5.05a2.789,2.789,0,0,1-2.523,1.729Z" transform="translate(-361.399 -305.413)" fill="#6e6e6e"/><path d="M679.227,509.1H684.6a4.471,4.471,0,0,0-2.96-3.277,4.175,4.175,0,0,1-2.057.542,4.1,4.1,0,0,1-1.42-.24,4.9,4.9,0,0,1-.954,1.194A4.649,4.649,0,0,1,679.227,509.1Zm-.546-6.28h3.429a2.789,2.789,0,0,1-2.527,1.718,2.643,2.643,0,0,1-.866-.153,4.372,4.372,0,0,1-.222.856,3.615,3.615,0,1,0-1.955-5.384,4.46,4.46,0,0,1,2.141,2.964Z" transform="translate(-374.028 -302.08)" fill="#6e6e6e"/></g><circle cx="15.438" cy="15.438" r="15.438" transform="translate(256.393 282.118)" fill="#ff6f61"/><path d="M572,643.126a11.391,11.391,0,0,1,2.851-1.968.9.9,0,0,0,.536-.839l.082-3a14.5,14.5,0,0,1,9,.241l-.082,3a1,1,0,0,0,.482.868,10.565,10.565,0,0,1,2.808,2.123.965.965,0,0,0,1.365.039l2.451-2.325a.965.965,0,0,0,.039-1.36,16.4,16.4,0,0,0-23.191-.627.965.965,0,0,0-.034,1.365l2.32,2.451a.965.965,0,0,0,1.365.034Z" transform="translate(-308.1 -341.759)" fill="#fff"/><path d="M26.085,0A26.085,26.085,0,1,1,0,26.085,26.085,26.085,0,0,1,26.085,0Z" transform="translate(245.707 95.397)" fill="#1ed761" opacity="0.1"/><path d="M688.173,314.7a11.957,11.957,0,0,1-11.79,0c-4.612,1.409-7.44,6.073-8.483,10.184h28.756C695.613,320.774,692.785,316.11,688.173,314.7Zm-5.9-21.911a10.361,10.361,0,1,0,10.351,10.361A10.361,10.361,0,0,0,682.278,292.79Zm0,18.249a8.014,8.014,0,0,1-7.241-4.946h14.482a8.034,8.034,0,0,1-7.241,4.956Z" transform="translate(-410.487 -187.365)" fill="#1ed761" opacity="0.68"/><path d="M404.258,125.805a2.773,2.773,0,0,0-3.416,1.018,8.47,8.47,0,0,0-1.182,3.681c-.429,2.851-.743,6.127,1.182,8.279A26.921,26.921,0,0,0,378.65,120.87" transform="translate(-209.075 -93.777)" fill="none" stroke="#6c63ff" stroke-miterlimit="10" stroke-width="3" opacity="0.1"/><path d="M818.111,453.929a1.8,1.8,0,0,0-2.2.656,5.224,5.224,0,0,0-.762,2.364c-.275,1.838-.482,3.941.762,5.307A17.3,17.3,0,0,0,801.66,450.74" transform="translate(-428.01 -264.506)" fill="none" stroke="#6c63ff" stroke-miterlimit="10" stroke-width="3" opacity="0.1"/><path d="M308.611,324.654a1.807,1.807,0,0,0-2.2.656,5.225,5.225,0,0,0-.762,2.369c-.275,1.833-.482,3.937.762,5.307A17.31,17.31,0,0,0,292.16,321.47" transform="translate(-164.31 -197.6)" fill="none" stroke="#6c63ff" stroke-miterlimit="10" stroke-width="3" opacity="0.1"/><path d="M723.708,633.411a5.37,5.37,0,0,0,2.263,1.968,107.425,107.425,0,0,0,19.085,8.592,1.274,1.274,0,0,0,1.853-.719,9.106,9.106,0,0,0,1.4-5.07,2.827,2.827,0,0,0,1.269-1.7,8.442,8.442,0,0,1,1.177-2.412c.9-1.36,1.992-2.726,2.137-4.381a7.559,7.559,0,0,1,.169-1.756,6.345,6.345,0,0,1,1.447-1.872,9.531,9.531,0,0,0,1.539-3.42c1.505-5.032,3.01-10.064,4.265-15.173.405-1.655.782-3.314,1.336-4.921.482-1.409,1.1-2.76,1.713-4.11a109.152,109.152,0,0,1,7.627-14.145,37.86,37.86,0,0,0,1.635,4.458c.328.748.68,1.486,1.013,2.234,1.259,2.817,1.032,6.436,2.581,9.084q.965,1.631,1.9,3.256a6.561,6.561,0,0,1,.815,1.722c.1.425.111.868.183,1.3.328,1.93,1.9,3.29,2.764,5.012a27.3,27.3,0,0,1,1.447,5.109c1.143,4,3.951,7.483,4.236,11.656a30.092,30.092,0,0,1-.082,3.377,28.641,28.641,0,0,0,.391,5.876,2.258,2.258,0,0,0,.154.569,17.049,17.049,0,0,1-10.614,7.169,2.976,2.976,0,0,0-2.19,1.09,2.037,2.037,0,0,0,.965,2.615,5.049,5.049,0,0,0,2.895.347,105.121,105.121,0,0,0,20.441-3.773,1.742,1.742,0,0,0,.888-.482,1.79,1.79,0,0,0,.294-1.2,10.131,10.131,0,0,0-1.061-4.491l.482-.169c.27-1.93-.724-3.8-1.5-5.587-1.341-3.121-2.074-6.494-3.136-9.74-2.045-6.272-5.35-12.124-6.146-18.685-.217-1.8-.757-3.638-.873-5.451a70.538,70.538,0,0,0-1.288-11.009c-.675-2.962-1.742-5.789-2.412-8.785a16.657,16.657,0,0,1,.1-9.012c.28-.82.656-1.6.912-2.412.965-3.189.043-6.643-.892-9.846q-.444-1.52-.878-3.03c-.391-1.327-.777-2.658-1.2-3.975.058-.053.111-.106.169-.169.849-.965.839-2.441,1.447-3.594.3-.593.753-1.081,1.071-1.66a6.078,6.078,0,0,0,.439-4.024c-.256-1.351-.767-2.634-1.153-3.951a21.478,21.478,0,0,1-.232-11.1,24.786,24.786,0,0,0,1.047-4.694,13.693,13.693,0,0,0-.294-3.2c-.748-4.052-2.214-8.163-5.191-10.84-1.587-1.447-3.734-2.716-3.9-4.916a1.23,1.23,0,0,0-.8-.029,8.6,8.6,0,0,1-.27-1.529h.024a1.977,1.977,0,0,0,.444,0,.883.883,0,0,0,.357-.1,1.02,1.02,0,0,0,.174-.13,3.142,3.142,0,0,0,.482-.642c.2-.328.376-.68.526-.921s.391-.627.579-.965q.844-1.447,1.568-2.943v-.039c.048-.092.092-.188.135-.28l.058-.13.087-.2c0-.048.043-.1.063-.15s.053-.121.077-.183l.068-.159c.024-.058.043-.116.068-.178a1.641,1.641,0,0,0,.063-.164c.024-.058.043-.116.063-.174s.039-.111.063-.169.034-.116.053-.174l.058-.174a.558.558,0,0,1,.048-.169l.048-.178.043-.169.043-.183a.3.3,0,0,1,.034-.164c.034-.058,0-.125.034-.188s0-.106,0-.159l.029-.188v-1.5a3.837,3.837,0,0,0-.111-.56,5.756,5.756,0,0,0-1.891-2.861,11.845,11.845,0,0,0-2.895-1.742,2.113,2.113,0,0,1-.685-.429,5.366,5.366,0,0,1-.574-1.081,3.111,3.111,0,0,0-2.07-1.274,6.091,6.091,0,0,1-2.316-.83.613.613,0,0,0-.2-.116.526.526,0,0,0-.294.063l-1.857.825a.883.883,0,0,0-1.023-.728,2.475,2.475,0,0,0-1.2.69.449.449,0,0,1-.111-.444l-1.447.965c-.178.116-.506.145-.482-.077a15.088,15.088,0,0,0-2.079,2.895,6.2,6.2,0,0,0-.453,1h0a.923.923,0,0,1-.063.217.136.136,0,0,0,0,.043,1.587,1.587,0,0,1-.039.2.235.235,0,0,0,0,.058v.251h0a2.675,2.675,0,0,0,0,.28,1.539,1.539,0,0,0,.835,1.283,1.486,1.486,0,0,0,.579.092,7.47,7.47,0,0,0,1.225-.251,2.829,2.829,0,0,1,.4-.068,1.242,1.242,0,0,1,.188,0,1.066,1.066,0,0,1,.695.236l.029.029a8.119,8.119,0,0,0-3.377,6.653,8.365,8.365,0,0,0,.849,3.686,1.172,1.172,0,0,0-.6,1.09,3.7,3.7,0,0,1-.2-1.148c-.791-.159-1.365.767-1.65,1.563a38.856,38.856,0,0,0-1.356,5.5c-.246,1.24-.482,2.48-.733,3.72s-.482,2.571-.666,3.859a29.431,29.431,0,0,0,.449,10.03c-.048.106-.092.217-.135.323-.145.386-.555.714-.6,1.124-.261,2.456,1.293,4.67,2.759,6.595a1.448,1.448,0,0,0,.482.482,1.3,1.3,0,0,0,.68.087,17.409,17.409,0,0,0,1.746-.174c.034.328.072.651.111.965a87.179,87.179,0,0,1,1.119,10.416c0,3.488-.666,7.024.671,10.131.222.531.651.965.695,1.515h.082a31.489,31.489,0,0,0-2,5.181c-.531,2.094-.642,4.294-1.235,6.368-.506,1.761-1.351,3.377-2.031,5.095a27.982,27.982,0,0,0-1.93,8.737,10.916,10.916,0,0,1-.82,4.009,40.8,40.8,0,0,0-2.046,4.713c-.965,2.866-2.591,5.582-2.895,8.616-.169,1.717.077,3.551-.642,5.1-.28.608-.695,1.134-1.023,1.708a13.8,13.8,0,0,0-1.115,2.895L744.4,624.4a5.173,5.173,0,0,1-1.167,2.349c-.444.425-1.028.656-1.447,1.1a3.767,3.767,0,0,0-.849,2.711,5.7,5.7,0,0,0-1.476.482,16.263,16.263,0,0,1-12.78,0,2.936,2.936,0,0,0-2.412-.347A2.056,2.056,0,0,0,723.708,633.411Zm38.05-119.972a10.4,10.4,0,0,1,1.582-3.662c1.081-1.78,2.219-3.541,3.252-5.36l.294-.285c.082.232.159.482.232.7a16.835,16.835,0,0,1,.429,1.882,9.064,9.064,0,0,1,.135,2.412l-.068.053a2.571,2.571,0,0,0-.912,1.018,2.05,2.05,0,0,0,0,1.274l-.043.048.048-.034a5.351,5.351,0,0,1,.381,2.026,6.178,6.178,0,0,1-1.177,2.108c-.965,1.684-.656,4.241-2.243,5.273l-.029.068h0a2.287,2.287,0,0,1-1.558-1.283h0C762.207,517.617,761.435,515.5,761.758,513.439Z" transform="translate(-387.525 -280.766)" fill="url(#a)"/><path d="M856.227,808.95a1.674,1.674,0,0,1-.3,1.182,1.876,1.876,0,0,1-.926.482,115.107,115.107,0,0,1-21.295,3.724,5.608,5.608,0,0,1-3.034-.342,1.952,1.952,0,0,1-.965-2.581,3.19,3.19,0,0,1,2.282-1.076,17.85,17.85,0,0,0,11.173-7.237,5.181,5.181,0,0,1,1.216-1.409,4.285,4.285,0,0,1,3.252-.265,24.292,24.292,0,0,1,6.233,1.809C855.6,804.184,856.2,807.1,856.227,808.95Z" transform="translate(-442.414 -445.914)" fill="#3f3d56"/><path d="M856.227,808.95a1.674,1.674,0,0,1-.3,1.182,1.876,1.876,0,0,1-.926.482,115.107,115.107,0,0,1-21.295,3.724,5.608,5.608,0,0,1-3.034-.342,1.952,1.952,0,0,1-.965-2.581,3.19,3.19,0,0,1,2.282-1.076,17.85,17.85,0,0,0,11.173-7.237,5.181,5.181,0,0,1,1.216-1.409,4.285,4.285,0,0,1,3.252-.265,24.292,24.292,0,0,1,6.233,1.809C855.6,804.184,856.2,807.1,856.227,808.95Z" transform="translate(-442.414 -445.914)" opacity="0.1"/><path d="M742.459,802.756a1.713,1.713,0,0,1-.9.83,1.849,1.849,0,0,1-1.028-.121,115.213,115.213,0,0,1-19.886-8.476,5.564,5.564,0,0,1-2.359-1.93,1.978,1.978,0,0,1,.579-2.7,3.119,3.119,0,0,1,2.5.343,17.8,17.8,0,0,0,13.315,0,5.157,5.157,0,0,1,1.79-.521,4.366,4.366,0,0,1,2.895,1.549,24.276,24.276,0,0,1,4.241,4.911C744.548,798.376,743.438,801.189,742.459,802.756Z" transform="translate(-384.71 -440.188)" fill="#3f3d56"/><path d="M742.459,802.756a1.713,1.713,0,0,1-.9.83,1.849,1.849,0,0,1-1.028-.121,115.213,115.213,0,0,1-19.886-8.476,5.564,5.564,0,0,1-2.359-1.93,1.978,1.978,0,0,1,.579-2.7,3.119,3.119,0,0,1,2.5.343,17.8,17.8,0,0,0,13.315,0,5.157,5.157,0,0,1,1.79-.521,4.366,4.366,0,0,1,2.895,1.549,24.276,24.276,0,0,1,4.241,4.911C744.548,798.376,743.438,801.189,742.459,802.756Z" transform="translate(-384.71 -440.188)" opacity="0.1"/><path d="M798.019,624.7c.719,1.93,1.322,3.859,1.93,5.789l.917,2.991c.965,3.16,1.93,6.566.931,9.716-.265.815-.656,1.582-.965,2.412a15.759,15.759,0,0,0-.1,8.9c.685,2.928,1.795,5.741,2.5,8.684a64.808,64.808,0,0,1,1.341,10.86c.121,1.79.68,3.6.912,5.379.83,6.469,4.27,12.268,6.4,18.434,1.1,3.2,1.867,6.522,3.271,9.605.8,1.766,1.838,3.594,1.558,5.509a15.1,15.1,0,0,1-11.964-.54,1.226,1.226,0,0,1-.81-1.124,26.623,26.623,0,0,1-.386-5.789,28.242,28.242,0,0,0,.082-3.319c-.294-4.115-3.223-7.545-4.409-11.5a25.033,25.033,0,0,0-1.534-5.037c-.907-1.7-2.538-3.054-2.895-4.945-.077-.424-.087-.859-.188-1.278a6.409,6.409,0,0,0-.854-1.7l-1.968-3.227c-1.616-2.615-1.38-6.185-2.687-8.964-.347-.738-.719-1.447-1.061-2.2a36.851,36.851,0,0,1-1.7-4.4,105.284,105.284,0,0,0-7.96,13.938,43.293,43.293,0,0,0-1.785,4.057c-.579,1.582-.965,3.223-1.394,4.853-1.3,5.041-2.895,10.006-4.443,14.955a9.322,9.322,0,0,1-1.6,3.377,6.314,6.314,0,0,0-1.505,1.848,7.1,7.1,0,0,0-.174,1.727c-.154,1.635-1.288,2.981-2.229,4.342a8.15,8.15,0,0,0-1.225,2.412,2.827,2.827,0,0,1-3.859,1.809h-.039a8.488,8.488,0,0,1-1.1-.656,20.334,20.334,0,0,1-2.591-1.93,14.958,14.958,0,0,1-1.93-2.277,1.1,1.1,0,0,1,.55-1.669h0c-.1-1.341-.13-2.87.835-3.8.449-.434,1.057-.666,1.52-1.081a5.017,5.017,0,0,0,1.216-2.316q2.47-7.777,4.93-15.554a13.226,13.226,0,0,1,1.163-2.866c.343-.569.772-1.085,1.066-1.684.748-1.534.482-3.338.666-5.037.314-3,1.992-5.669,3.01-8.5a39.331,39.331,0,0,1,2.132-4.656,10.208,10.208,0,0,0,.854-3.951,26.386,26.386,0,0,1,2.007-8.621,52.514,52.514,0,0,0,2.113-5.027c.622-2.046.733-4.217,1.293-6.272a30.143,30.143,0,0,1,2.089-5.133,13.916,13.916,0,0,1,2.571-4.052c1.891-1.843,4.675-2.446,7.314-2.528S795.39,624.976,798.019,624.7Z" transform="translate(-403.5 -354.519)" fill="#3f3d56"/><path d="M809.891,533.638q5.094-3.01,10.078-6.214a6.4,6.4,0,0,1-1.259-3.7q0-.08,0-.159c-.048-1.3.444-2.412-1.192-2.243a31.04,31.04,0,0,0-4.646.965,44.9,44.9,0,0,1-4.342,1.356,9.264,9.264,0,0,1,1.819,3.406,16.539,16.539,0,0,1,.449,1.857C811.125,530.565,811.14,532.514,809.891,533.638Z" transform="translate(-431.566 -301.028)" fill="#a0616a"/><path d="M801.57,560.438c.434,3.416,1.172,6.836,1.167,10.271s-.695,6.933.7,10.01c.232.521.675.926.724,1.5,1.93.333,3.811-.569,5.649-1.221a22.946,22.946,0,0,1,5.21-1.167c1.447-.145,2.933-.154,4.371-.429a6.8,6.8,0,0,0,3.778-1.93c.883-.965.873-2.412,1.491-3.546.314-.584.786-1.061,1.119-1.635a5.736,5.736,0,0,0,.453-3.97,40.31,40.31,0,0,0-1.2-3.9,20.036,20.036,0,0,1-.241-10.942,24.321,24.321,0,0,0,1.09-4.636,12.9,12.9,0,0,0-.3-3.155c-.782-3.995-2.311-8.052-5.408-10.691-1.655-1.414-3.893-2.682-4.067-4.824-.714-.28-1.481.2-2.094.651l-6.88,5.07a2.576,2.576,0,0,0-.965,1.008c-.429,1.028.56,2.156.4,3.266-.116.806-.8,1.389-1.225,2.084-1.013,1.655-.685,4.178-2.34,5.2-.15.309-.289.627-.415.965a23.463,23.463,0,0,0-1.182,5.21A27.114,27.114,0,0,0,801.57,560.438Z" transform="translate(-427.804 -305.574)" fill="#3f3d56"/><path d="M808.57,523.347a9.262,9.262,0,0,1,1.819,3.406,7.628,7.628,0,0,0,1.669.183c2.808,0,4.689-3.218,6.083-5.427-.043-1.3,1.032-.651-.6-.482a31.049,31.049,0,0,0-4.646.965C812.458,522.1,808.7,523.487,808.57,523.347Z" transform="translate(-431.587 -300.724)" opacity="0.1"/><circle cx="7.893" cy="7.893" r="7.893" transform="translate(372.579 209.767)" fill="#a0616a"/><rect width="5.919" height="11.511" rx="2.96" transform="translate(377.342 226.436) rotate(-132.39)" fill="#3f3d56"/><rect width="5.919" height="11.511" rx="2.96" transform="translate(377.342 226.436) rotate(-132.39)" opacity="0.1"/><circle cx="0.656" cy="0.656" r="0.656" transform="translate(380.307 218.485)" fill="#fff"/><path d="M801.571,567.053c6.088-.9,11.617-4.554,15.848-9.089a7.209,7.209,0,0,0,1.79-2.678,8.087,8.087,0,0,0,.217-2.6l-.1-3.483a9.6,9.6,0,0,0-.844-4.438,3.286,3.286,0,0,0-3.8-1.737c-3.729,1.447-6.156,4.757-8.288,8.143a34.7,34.7,0,0,1-1.992,3.063,1.777,1.777,0,0,1-1.447.864,1.09,1.09,0,0,1-.362-.1,23.469,23.469,0,0,0-1.182,5.21,27.11,27.11,0,0,0,.164,6.841Z" transform="translate(-427.806 -312.188)" opacity="0.1"/><path d="M794.964,534.625a10.006,10.006,0,0,1,1.65-3.618c2.359-3.691,5.012-7.294,6.272-11.5-1.838.333-2.128,3.5-3.99,3.638l.145-2.282c0-.386,0-.854-.314-1.057s-.873.063-1.081.444-.251.844-.444,1.235-.646.738-1.047.564l-.164-.757a1.158,1.158,0,0,0-1.394,1.177,3.494,3.494,0,0,1-.208-1.134c-.825-.154-1.423.757-1.717,1.544a36.631,36.631,0,0,0-1.418,5.427l-.757,3.671c-.265,1.269-.526,2.538-.7,3.816a27.643,27.643,0,0,0,.531,10.17,32.8,32.8,0,0,0,2.938-1.838,5.143,5.143,0,0,0,1.819-2.258C795.765,539.5,794.564,537.013,794.964,534.625Z" transform="translate(-421.744 -300.099)" fill="#a0616a"/><path d="M808.521,540.988a3.286,3.286,0,0,1,3.8,1.737,9.556,9.556,0,0,1,.844,4.438l.1,3.493a7.967,7.967,0,0,1-.212,2.6,7.3,7.3,0,0,1-1.785,2.677c-4.68,5.012-10.937,8.944-17.787,9.277a1.418,1.418,0,0,1-.709-.087,1.544,1.544,0,0,1-.482-.482c-1.529-1.9-3.146-4.086-2.895-6.508.043-.405.482-.733.627-1.11a9.789,9.789,0,0,1,4.742-5.017l.415-.193a2.412,2.412,0,0,0,1.626,1.274,1.824,1.824,0,0,0,1.447-.864,34.782,34.782,0,0,0,1.992-3.068C802.365,545.735,804.8,542.44,808.521,540.988Z" transform="translate(-421.648 -311.132)" fill="#3f3d56"/><path d="M812.569,506c-.671-.347-.777-1.24-.844-1.992a19.739,19.739,0,0,0-.4-2.605,3.658,3.658,0,0,0-1.37-2.47,2,2,0,0,0-3.044,1.491.68.68,0,0,1-.135.449.483.483,0,0,1-.232.121,1.558,1.558,0,0,1-1.828-1.032c-.14-.482-.034-1.1-.376-1.5s-.748-.386-1.081-.646a1.877,1.877,0,0,1-.545-1.544c0-.719.1-1.578-.482-2.021-.873-.68-2.185.4-3.213,0a1.578,1.578,0,0,1-.883-1.539,3.82,3.82,0,0,1,.627-1.766,14.823,14.823,0,0,1,2.166-2.851c0,.212.333.188.516.072l1.525-.926a.41.41,0,0,0,.121.439,2.62,2.62,0,0,1,1.25-.675.917.917,0,0,1,1.066.719l1.93-.835a.4.4,0,0,1,.516.053,6.865,6.865,0,0,0,2.412.815,3.267,3.267,0,0,1,2.156,1.259,5.208,5.208,0,0,0,.6,1.061,2.251,2.251,0,0,0,.728.429,12.64,12.64,0,0,1,3.039,1.713,5.731,5.731,0,0,1,1.973,2.827c.521,1.877-.232,3.859-1.1,5.591a35.834,35.834,0,0,1-2.238,3.835c-.309.482-.733,1.394-1.23,1.674A2.306,2.306,0,0,1,812.569,506Z" transform="translate(-426.183 -283.177)" fill="#3f3d56"/><path d="M799.048,497.5c1.028.4,2.34-.685,3.213,0,.564.444.482,1.3.482,2.021a1.877,1.877,0,0,0,.545,1.544c.333.261.806.323,1.081.646s.236,1,.376,1.5a1.558,1.558,0,0,0,1.828,1.032.483.483,0,0,0,.232-.121.681.681,0,0,0,.135-.449,2,2,0,0,1,3.044-1.491,3.7,3.7,0,0,1,1.37,2.47,19.749,19.749,0,0,1,.4,2.605c.068.753.174,1.645.844,1.992a2.306,2.306,0,0,0,1.65.145c.482-.28.921-1.206,1.23-1.674a35.816,35.816,0,0,0,2.239-3.859,11.948,11.948,0,0,0,1.187-3.281,8.485,8.485,0,0,1-1.187,5.254,35.816,35.816,0,0,1-2.238,3.835c-.309.482-.733,1.394-1.23,1.674a2.306,2.306,0,0,1-1.65-.145c-.671-.347-.777-1.24-.844-1.992a19.759,19.759,0,0,0-.4-2.605,3.659,3.659,0,0,0-1.37-2.47,2,2,0,0,0-3.044,1.491.682.682,0,0,1-.135.449.483.483,0,0,1-.232.121,1.558,1.558,0,0,1-1.828-1.032c-.14-.482-.034-1.1-.376-1.5s-.748-.386-1.081-.646a1.877,1.877,0,0,1-.545-1.544c0-.719.1-1.578-.482-2.021-.873-.68-2.185.4-3.213,0a1.578,1.578,0,0,1-.883-1.539,2.806,2.806,0,0,1,.241-1.008A1.307,1.307,0,0,0,799.048,497.5Z" transform="translate(-426.199 -288.397)" opacity="0.1"/></svg>