<svg xmlns="http://www.w3.org/2000/svg" width="330.326" height="201.788" viewBox="0 0 330.326 201.788"><defs><style>.a{fill:#3ca289;opacity:0.53;}.b{fill:#3da389;}.c{fill:#4c4c4c;}.d{fill:#2f2e41;}.e{fill:#a0616a;}.f{opacity:0.1;}.g{fill:#3f3d56;}.h{fill:#E32539;}.i{fill:#f2f2f2;}.j{fill:#1a1a1b;}.k{fill:#f1f1f1;}</style></defs><g transform="translate(0 0.245)"><circle class="a" cx="97.5" cy="97.5" r="97.5" transform="translate(69 -0.244)"/><g transform="translate(237.85 15.615)"><path class="b" d="M972.814,180.919l-5.934,14.941c1.148,5.2,2.272,11.058,3.172,17.3l10.564-22.108.173.267a47.811,47.811,0,0,0-8.159-10.645Z" transform="translate(-932.988 -173.578)"/><path class="b" d="M952.253,178.623,958,164.15a25.191,25.191,0,0,0-10.856-6.349c-.2-.051-.4-.095-.595-.139C947.011,159.034,949.664,167.1,952.253,178.623Z" transform="translate(-918.563 -157.253)"/><path class="b" d="M1002.991,324.609l.133.331q-.213-3.384-.668-6.7L984.091,341.2l-.067-.149q-.06,2.032-.179,4.008Z" transform="translate(-945.025 -271.186)"/><path class="b" d="M995.685,234.408l.155.3a75.173,75.173,0,0,0-6.8-16.388l-10.766,22.53q1.227,8.78,1.642,16.945Z" transform="translate(-941.071 -200.292)"/><path class="b" d="M855.477,223.416a62.762,62.762,0,0,0-2.867,12.321l37.479,21.9c-.335-4.717-.843-9.229-1.431-13.4L855.437,223.77Z" transform="translate(-851.913 -203.905)"/><path class="b" d="M850.907,271.578l.034-.357,38.19,21.594q-.081-1.738-.2-3.445l-37.618-21.977.036-.356Q851.068,269.253,850.907,271.578Z" transform="translate(-850.705 -234.853)"/><path class="b" d="M1002.437,287.547l.144.32a89.766,89.766,0,0,0-2.5-11.84L984.1,299.734q.246,5.446.124,10.575Z" transform="translate(-945.206 -241.232)"/><path class="b" d="M960.262,415.286a73.218,73.218,0,0,1-6.991,20.152c4.377-3.732,21.753-19.535,26.9-39.278Z" transform="translate(-923.333 -326.466)"/><path class="b" d="M854.425,341.7a86.838,86.838,0,0,0,3.208,11.173l.059-.386,32.095,23.344A108,108,0,0,0,891.459,363Z" transform="translate(-853.201 -287.829)"/><path class="b" d="M912.831,177.723c-2.8-12.464-5.678-20.841-5.72-20.961l.18-.154c-5.872-1.207-11.274.71-15.721,5.014Z" transform="translate(-879.556 -156.253)"/><path class="b" d="M979.7,363.514c-.028.408-.053.819-.085,1.223A107.331,107.331,0,0,1,978.1,376.31l19.716-18.945.123.328a42.526,42.526,0,0,0,1.285-10.656q-.024-2.117-.147-4.216Z" transform="translate(-940.948 -288.624)"/><path class="b" d="M895.812,209.391c-.9-6.17-2.007-11.961-3.143-17.1l-21.749-16.471.057-.343a36.2,36.2,0,0,0-8.116,13.615Z" transform="translate(-859.186 -169.893)"/><path class="b" d="M897.888,404.908l-31.86-23.173c7.9,21.879,23.3,42.9,24.281,44.233A70.855,70.855,0,0,0,897.888,404.908Z" transform="translate(-861.433 -316.232)"/><path class="b" d="M888.5,321.273l.018-.02a145.669,145.669,0,0,0,.15-15.683l-38.284-21.647q-.2,3.151-.171,6.48a52.217,52.217,0,0,0,1.041,9.447Z" transform="translate(-850.211 -246.835)"/></g><g transform="translate(256.304 86.786)"><path class="b" d="M1112.163,467.027l-14.1,7.723c-2.431,4.735-5.3,9.966-8.59,15.347l22.238-10.29-.037.316a47.81,47.81,0,0,0,.506-13.4Z" transform="translate(-1038.422 -447.7)"/><path class="b" d="M1120.51,443.186l13.658-7.481a25.188,25.188,0,0,0-4.312-11.814c-.121-.166-.245-.326-.37-.486C1128.966,424.755,1125.864,432.662,1120.51,443.186Z" transform="translate(-1060.443 -416.968)"/><path class="b" d="M1046.633,616.978l-.109.34q1.994-2.742,3.756-5.583L1021.5,617.7l.043-.157q-1.342,1.527-2.694,2.973Z" transform="translate(-988.312 -550.588)"/><path class="b" d="M1081.91,530.624l-.075.333A75.194,75.194,0,0,0,1087.05,514l-22.661,10.486q-4.655,7.545-9.543,14.1Z" transform="translate(-1013.854 -481.243)"/><path class="b" d="M1020.134,420.426a62.764,62.764,0,0,0-10.067,7.661l14.9,40.769c2.75-3.847,5.237-7.646,7.444-11.233l-12.535-36.95Z" transform="translate(-982.084 -414.855)"/><path class="b" d="M998.017,450.835l.254-.253,15.641,40.989q1.046-1.39,2.047-2.778L1001,447.874l.255-.251Q999.625,449.148,998.017,450.835Z" transform="translate(-973.534 -434.151)"/><path class="b" d="M1058.445,583.981l-.093.337a89.735,89.735,0,0,0,5.628-10.711l-27.43,8.065q-3.284,4.351-6.649,8.224Z" transform="translate(-996.155 -523.536)"/><path class="b" d="M936.473,672.466a73.218,73.218,0,0,1-18.237,11.062c5.751-.083,29.214-1.172,45.767-13.1Z" transform="translate(-916.929 -592.232)"/><path class="b" d="M951.707,506.391a86.856,86.856,0,0,0-4.655,10.652l.292-.26,9.83,38.45a107.954,107.954,0,0,0,9.47-8.816Z" transform="translate(-937.374 -475.846)"/><path class="b" d="M1104.279,427.278c5.789-11.388,8.919-19.673,8.964-19.792l.237,0c-3.753-4.675-9.136-6.644-15.306-6.165Z" transform="translate(-1044.595 -401.246)"/><path class="b" d="M993.483,635.77c-.282.3-.563.6-.846.888a107.267,107.267,0,0,1-8.55,7.945l27.268-2.016-.115.331a42.517,42.517,0,0,0,7.785-7.387q1.332-1.645,2.576-3.341Z" transform="translate(-963.651 -565.1)"/><path class="b" d="M1058.135,443.527c3.245-5.323,6.083-10.493,8.484-15.173l-6.245-26.557.263-.228a36.2,36.2,0,0,0-14.935,5.309Z" transform="translate(-1007.366 -401.476)"/><path class="b" d="M933.007,582.794l-9.758-38.169c-7.873,21.888-9.419,47.9-9.511,49.555A70.859,70.859,0,0,0,933.007,582.794Z" transform="translate(-913.738 -502.973)"/><path class="b" d="M979.509,512.666l.027,0a145.739,145.739,0,0,0,10.118-11.983l-15.679-41.09q-2.168,2.3-4.265,4.882a52.207,52.207,0,0,0-5.224,7.94Z" transform="translate(-949.744 -442.641)"/></g><g transform="translate(204.612 78.971)"><path class="b" d="M839.084,384.321l-1.024,16.044c2.7,4.588,5.578,9.815,8.364,15.472l3.213-24.291.247.2a47.808,47.808,0,0,0-11.049-7.6Z" transform="translate(-808.352 -381.297)"/><path class="b" d="M807.355,392.609l.993-15.541a25.189,25.189,0,0,0-12.287-2.683c-.2.013-.407.032-.608.052C796.314,375.6,801.331,382.453,807.355,392.609Z" transform="translate(-778.122 -374.345)"/><path class="b" d="M918.364,501.938l.229.274q-1.248-3.152-2.7-6.161l-10.371,27.505-.11-.121q.571,1.951,1.069,3.867Z" transform="translate(-856.136 -460.695)"/><path class="b" d="M882.913,424.334l.241.242a75.168,75.168,0,0,0-11.533-13.484l-3.275,24.754q3.881,7.971,6.8,15.607Z" transform="translate(-829.84 -400.417)"/><path class="b" d="M735.8,463.182a62.749,62.749,0,0,0,1.082,12.6l42.412,9.239c-1.777-4.382-3.654-8.517-5.5-12.3l-37.92-9.193Z" transform="translate(-735.797 -437.375)"/><path class="b" d="M740.743,512.225l-.078-.35,42.994,8.731q-.614-1.627-1.25-3.216l-42.569-9.273-.075-.35Q740.178,509.964,740.743,512.225Z" transform="translate(-738.612 -469.008)"/><path class="b" d="M906.642,468.848l.235.26a89.726,89.726,0,0,0-6.034-10.488l-7.872,27.486q1.917,5.1,3.386,10.019Z" transform="translate(-847.311 -434.138)"/><path class="b" d="M917.774,595.128a73.207,73.207,0,0,1-.42,21.326c3.009-4.9,14.649-25.3,13.438-45.668Z" transform="translate(-864.612 -513.72)"/><path class="b" d="M764.724,578.165a86.82,86.82,0,0,0,6.505,9.634l-.063-.386,37.739,12.28a108.014,108.014,0,0,0-2.377-12.718Z" transform="translate(-756.32 -518.955)"/><path class="b" d="M773.639,393.12c-6.52-10.987-11.842-18.065-11.919-18.167l.124-.2c-5.957.667-10.5,4.16-13.4,9.628Z" transform="translate(-744.769 -374.633)"/><path class="b" d="M909.952,544.352c.1.4.2.8.3,1.19a107.245,107.245,0,0,1,2.134,11.475l12.895-24.111.218.274a42.524,42.524,0,0,0-2.072-10.531q-.677-2.006-1.443-3.964Z" transform="translate(-859.359 -476.754)"/><path class="b" d="M773.466,433.414c-2.759-5.591-5.606-10.755-8.274-15.289l-25.775-8.942-.052-.344a36.2,36.2,0,0,0-3.51,15.457Z" transform="translate(-735.838 -398.819)"/><path class="b" d="M825.6,624.843l-37.462-12.191c14.272,18.367,35.414,33.6,36.764,34.561A70.852,70.852,0,0,0,825.6,624.843Z" transform="translate(-772.929 -543.423)"/><path class="b" d="M791.227,548.071l.012-.024a145.809,145.809,0,0,0-4.7-14.961l-43.1-8.753q.779,3.06,1.84,6.216a52.2,52.2,0,0,0,3.91,8.662Z" transform="translate(-741.215 -480.761)"/></g><path class="c" d="M246.952,695.982q44-.519,88,.6a29.065,29.065,0,0,1,7.37.814c2.228.668,3.943,2.1,3.333,3.479q-17.175.508-34.385.314c-2.5,1.224-5.242,3.067-3.706,4.718,1.063,1.142,3.685,1.482,5.979,1.485,4.154,0,8.326-.677,12.418-.277s8.177,2.553,6.978,4.787c-.91,1.7-4.365,2.537-7.508,2.687s-6.362-.162-9.435.24a68.482,68.482,0,0,0-8.183,2.067,76.085,76.085,0,0,1-13.791,1.718c-36.1,2.205-72.5,2.188-108.815,2.168-14.7-.008-29.6-.03-43.8-2.177-8.092-1.223-15.847-3.123-24.041-4.109-9.788-1.177-19.9-1.018-29.914-.982q-26.359.093-52.672-1.016c-1.305-.055-2.908-.242-3.26-.95-.411-.827,1.257-1.472,2.668-1.8a154.936,154.936,0,0,1,24.3-3.625c4.145-.291,8.416-.44,12.228-1.4s7.143-2.971,7.107-5.318c-.011-.716-.313-1.482.284-2.114.793-.84,2.745-1.032,4.43-1.124,18.67-1.015,37.442-1.438,56.2-1.268,6.6.06,13.222.192,19.772-.252,5.367-.364,10.624-1.112,15.914-1.739,7.1-.843,38-5.207,42.508-1.665,3.374,2.651-3.592,3.223,5.458,4.3C230.267,696.483,238.96,696.077,246.952,695.982Z" transform="translate(-31.454 -519.239)"/><ellipse class="d" cx="19.5" cy="17" rx="19.5" ry="17" transform="translate(180 49.756)"/><ellipse class="d" cx="17" cy="17.5" rx="17" ry="17.5" transform="translate(202 27.756)"/><path class="d" d="M768.466,264.6a17.431,17.431,0,0,1-26.917-9.152,17.431,17.431,0,1,0,34-7.148A17.425,17.425,0,0,1,768.466,264.6Z" transform="translate(-535.266 -205.943)"/><ellipse class="e" cx="14.235" cy="14.235" rx="14.235" ry="14.235" transform="translate(180.546 59.763)"/><path class="e" d="M665.086,384.453s5.81,8.715,4.939,12.492c0,0-3.777,1.743-3.777,2.324s-3.486,6.1-3.486,6.1l-4.067,5.52-1.743,7.263h8.424l9.3-7.263,9.006-9.877s6.1-2.9,9.3-.581l1.743,1.453s-6.1-8.134-9.005-9.877c0,0-5.229-6.391-4.648-12.782Z" transform="translate(-475.244 -298.835)"/><path class="e" d="M640.671,439.224s-5.81,3.2-8.134,9.3-12.782,26.436-12.782,26.436-.872,13.073-.29,13.654,7.262-5.81,8.424-7.553S633.7,458.4,633.7,458.4l7.553-12.2,1.452-6.972Z" transform="translate(-448.505 -341.405)"/><path class="e" d="M548.344,495.791l-2.614-.871s-15.978-9.877-16.849-14.235-13.654-18.883-13.944-11.039,9.3,16.559,9.3,16.559,20.916,29.341,22.078,20.916Z" transform="translate(-374.479 -361.369)"/><path class="e" d="M720.952,462s.291,8.134,11.62,11.039c0,0,11.62,15.687,12.782,22.659s31.664,42.7,31.664,42.7,28.179,3.486,28.179,0-23.53-6.391-23.53-6.391-24.693-36.6-25.855-41.542-12.2-41.542-17.43-41.251c0,0-4.938-2.324-7.843-.581S720.952,462,720.952,462Z" transform="translate(-520.652 -347.627)"/><path class="e" d="M360.909,534.372s-20.335-27.307-24.693-29.05-9.877-2.905-13.072,1.162-40.961,51.709-40.961,51.709-13.363,13.654-20.045,11.039c0,0-3.486,2.9,4.648,3.486a48.471,48.471,0,0,0,15.687-1.743s4.939.872,8.425,1.743,7.844,1.162,7.553-1.162l-1.162-9.3s29.922-24.693,30.793-35.151c0,0-.581-4.939,0-4.357s12.782,13.653,18.3,16.559,19.173,6.972,19.173,6.972Z" transform="translate(-194.597 -387.168)"/><path class="f" d="M360.909,534.372s-20.335-27.307-24.693-29.05-9.877-2.905-13.072,1.162-40.961,51.709-40.961,51.709-13.363,13.654-20.045,11.039c0,0-3.486,2.9,4.648,3.486a48.471,48.471,0,0,0,15.687-1.743s4.939.872,8.425,1.743,7.844,1.162,7.553-1.162l-1.162-9.3s29.922-24.693,30.793-35.151c0,0-.581-4.939,0-4.357s12.782,13.653,18.3,16.559,19.173,6.972,19.173,6.972Z" transform="translate(-194.597 -387.168)"/><path class="e" d="M287.929,581.625s-26.726-10.167-30.212-12.491-15.978-6.972-22.369-1.743-37.475,29.341-47.933,31.665-28.469,7.843-28.469,7.843-11.62.872.872,5.81c0,0,15.4,1.453,18.011,3.777s11.33,5.229,11.911,1.453,2.324-8.715,5.52-9.3S236.8,597.6,242.611,586.273c0,0,13.073,7.263,21.207,15.687s27.307,13.073,27.307,13.073Z" transform="translate(-118.422 -430.645)"/><path class="g" d="M605.641,590.224s-12.734,3.385-13.775,2.128-6.56,5.716-1.331,19.66,4.067,20.335,6.972,22.369,16.559-1.162,20.625.291,9.3,2.615,11.039-5.81,6.1-23.24,5.229-25.274-5.519-6.682-5.519-6.682l-9.586-4.939Z" transform="translate(-426.548 -448.54)"/><path class="d" d="M681.7,450.054s-2.023-5.665-5.777-6.727a9.672,9.672,0,0,1-.937-.307,7.152,7.152,0,0,0-8.828,2.532c-3.776,5.229-7.262,11.33-4.358,14.816s8.715,5.52,8.715,5.52l4.358,5.52s-8.715,15.687-8.715,22.95c0,0-.291,2.9-5.229-2.324s-25.148-8.844-25.148-8.844,4.232-5.681,1.037-8.3-6.121-13.029,1.442-17.117l12.938-19.05,2.324.29s-3.05,2.76-3.341,4.212-11.911,11.62-7.263,13.363,12.2-2.033,15.4-6.391c1.758-2.4,4.218-5.672,7.333-7.748a10.862,10.862,0,0,1,10.865-.583l.975.488h0a12.441,12.441,0,0,1,4.3,5.293l.346.808Z" transform="translate(-458.592 -341.051)"/><ellipse class="d" cx="14" cy="13" rx="14" ry="13" transform="translate(191 55.756)"/><ellipse class="d" cx="13" cy="8.5" rx="13" ry="8.5" transform="translate(180 55.756)"/><circle class="e" cx="3" cy="3" r="3" transform="translate(193 75.756)"/><path class="h" d="M705.634,270.281v23.136h-6.682V270.281a1.557,1.557,0,0,1,1.557-1.557h3.567a1.557,1.557,0,0,1,1.557,1.557Z" transform="translate(-505.043 -220.436)"/><ellipse class="h" cx="8.5" cy="7.5" rx="8.5" ry="7.5" transform="translate(189 70.756)"/><ellipse class="i" cx="3" cy="3.5" rx="3" ry="3.5" transform="translate(193 72.756)"/><circle class="h" cx="2" cy="2" r="2" transform="translate(195 75.756)"/><path class="f" d="M705.634,270.281v1.057h-6.682v-1.057a1.557,1.557,0,0,1,1.557-1.557h3.567a1.557,1.557,0,0,1,1.557,1.557Z" transform="translate(-505.043 -220.436)"/><path class="j" d="M452.523,427.312l17.1-17.1a3.191,3.191,0,0,1,4.512,0l15.387,15.387a3.191,3.191,0,0,1,0,4.512l-15.982,15.982a3.191,3.191,0,0,1-4.342.158l-16.51-14.264a3.191,3.191,0,0,1-.17-4.671Z" transform="translate(-329.539 -320.155)"/><path class="k" d="M440,340.461,454.961,325.5l12.346,12.346-14.38,14.38Z" transform="translate(-312.18 -230.586)"/></g></svg>