<svg xmlns="http://www.w3.org/2000/svg" width="316.259" height="253.086" viewBox="0 0 316.259 253.086"><defs><style>.a{fill:#3da389;}.b{fill:#f2f2f2;}.c{fill:#4fc6a8;}.d{fill:#d0cde1;}.e{fill:#4c4c4c;}.f{fill:#ffb8b8;}.g{fill:#E32539;}.h{fill:#45445c;}.i{fill:#fff;}.j{fill:#3f3d56;}</style></defs><path class="a" d="M542.882,187.673a79.646,79.646,0,0,1-11.936,41.578q-1.984,3.275-4.27,6.411A106.944,106.944,0,0,1,502.336,259.5q-.883.631-1.779,1.249l-.676.466q-1.412.956-2.856,1.883c-.3.194-.608.385-.912.576-.259.165-.521.327-.783.488q-4.207,2.6-8.7,4.92c-.327.168-.657.336-.987.5-.285.142-.569.288-.857.43-.2.1-.4.2-.6.3-.336.168-.676.333-1.016.495q-1.325.636-2.669,1.245c-.411.188-.825.375-1.242.556a.024.024,0,0,1-.013.006c-.414.184-.828.366-1.245.543-.382.165-.767.33-1.152.488q-1.737.733-3.5,1.417c-.243.1-.488.191-.734.285-.34.129-.676.259-1.019.385-.437.162-.87.323-1.307.482-.408.149-.815.294-1.226.44l-.087.029c-.411.146-.822.288-1.236.427q-3.193,1.1-6.479,2.051c-.275.081-.55.159-.825.236-.123.039-.249.074-.375.107-.32.091-.64.181-.964.268-.395.113-.792.22-1.194.323q-1.674.446-3.364.854c-.382.094-.76.184-1.142.272a.047.047,0,0,1-.023.006l-1.145.262c-.534.123-1.074.243-1.614.353-.624.136-1.252.265-1.883.395-.391.078-.783.155-1.174.23s-.786.152-1.177.223q-2.955.548-5.958.987c-.744.107-1.488.21-2.238.311-.459.061-.922.12-1.384.175-.4.048-.812.1-1.216.142s-.809.091-1.216.136h0c-.039.007-.078.01-.116.013-.663.071-1.329.136-2,.2-.391.039-.783.071-1.177.1-.353.032-.708.061-1.064.087q-1.6.131-3.2.223-.519.034-1.038.058c-.737.042-1.475.074-2.216.1-.307.013-.618.026-.925.036-.828.029-1.659.048-2.491.065q-.7.015-1.407.019-.835.01-1.669.01c-26.916,0-57.852-9.219-83.335-22.62a179.111,179.111,0,0,1-18.557-11.182c-3.448-2.384-6.7-4.836-9.723-7.346-22.516-18.664-32.263-40.171-14.213-56.539q3.493-3.168,7.527-6.6,3.052-2.6,6.372-5.324c31.528-25.9,79.851-59.867,111.929-85.767C471.124,46.331,542.882,133.722,542.882,187.673Z" transform="translate(-226.624 -71.899)"/><path class="b" d="M476.764,569.207l-13.272,1.721-.676.087-17.664,2.29-80.63,10.458c-3.448-2.384-6.7-4.836-9.723-7.346l92.272-5.454,15.96-.945.67-.039Z" transform="translate(-275.983 -404.105)"/><path class="b" d="M404.233,368.207l-70.1,9.093q3.052-2.6,6.372-5.324Z" transform="translate(-261.999 -268.121)"/><path class="b" d="M845.549,533.042q-1.984,3.275-4.269,6.411l-60.909-7.9-33.511-4.348,32.964,1.951Z" transform="translate(-541.227 -375.69)"/><path class="c" d="M610.844,538.454c-22.419,16.057-52.376,25.861-85.282,25.861-26.916,0-57.852-9.219-83.335-22.62,2.015-5.224,4.823-9.458,8.727-11.6.1-.055.2-.11.3-.158a12.337,12.337,0,0,1,5.382-1.362c22.966-.647,20.378,25.23,49.167-10.351,17.9-22.128,38.185-29.743,52.049-27.281.256.045.508.094.76.146,8.035,1.669,13.783,6.812,15.442,14.52,4.529,21.025-8.734,37.846,15.527,32.67A50.177,50.177,0,0,1,610.844,538.454Z" transform="translate(-335.133 -350.855)"/><path class="d" d="M707.258,388.857c-11.282-6.29-18.306-14.877-20.876-25.522-1.908-7.9-1.36-16.8,1.63-26.436a70.8,70.8,0,0,1,9.846-19.888c22.849-32.342,24.911-53.417,22.618-65.4-2.515-13.14-10.685-18.6-10.767-18.651l.353-.542c.084.055,8.469,5.639,11.044,19.046,1.484,7.729.786,16.542-2.076,26.195-3.562,12.013-10.508,25.379-20.644,39.727a70.166,70.166,0,0,0-9.757,19.706c-4.9,15.807-5.6,37.521,18.944,51.2Z" transform="translate(-499.558 -176.255)"/><path class="d" d="M675.11,410.985c-8.895-4.958-8.647-12.816-6.873-18.535a25.14,25.14,0,0,1,3.495-7.06c8-11.331,8.728-18.691,7.925-22.87a10.1,10.1,0,0,0-3.7-6.42l.353-.542a10.6,10.6,0,0,1,3.979,6.841c1.2,6.258-1.5,14.12-8.032,23.366a24.484,24.484,0,0,0-3.405,6.878c-1.7,5.49-1.946,13.032,6.57,17.779Z" transform="translate(-487.369 -259.564)"/><path class="d" d="M803.841,196.985l-.315-.565c8.516-4.747,8.273-12.288,6.57-17.779a24.479,24.479,0,0,0-3.405-6.878c-6.532-9.246-9.234-17.107-8.032-23.366a10.6,10.6,0,0,1,3.98-6.84l.353.542a10.165,10.165,0,0,0-3.7,6.446c-.794,4.177-.063,11.531,7.93,22.845a25.139,25.139,0,0,1,3.495,7.06C812.488,184.169,812.735,192.027,803.841,196.985Z" transform="translate(-576.082 -114.785)"/><path class="c" d="M836.674,171.723a9.7,9.7,0,0,1-16.255-10.6c2.929-4.489,17.671-9.327,17.671-9.327S839.6,167.234,836.674,171.723Z" transform="translate(-589.925 -121.709)"/><path class="c" d="M825.674,78.723a9.7,9.7,0,1,1-16.255-10.6c2.928-4.489,17.672-9.327,17.672-9.327S828.6,74.234,825.674,78.723Z" transform="translate(-582.483 -58.792)"/><path class="d" d="M807.435,397.668c-.621-.146-15.271-3.552-20.155-1.226a10.028,10.028,0,0,0,4.328,19.081,9.863,9.863,0,0,0,2.167-.239,10.067,10.067,0,0,0,2.128-.734c4.884-2.329,11.47-15.85,11.748-16.426l.178-.362Zm-11.81,16.3a9.38,9.38,0,1,1-8.067-16.937,12.1,12.1,0,0,1,4.865-.747,78.771,78.771,0,0,1,14.465,1.928C805.785,400.421,799.876,411.94,795.625,413.965Z" transform="translate(-564.704 -286.676)"/><path class="d" d="M697.47,185.732a9.987,9.987,0,0,1-6.752-2.613c-4-3.646-6.371-18.5-6.471-19.128l-.062-.4.4.026c.637.041,15.645,1.037,19.643,4.682h0a10.023,10.023,0,0,1-6.761,17.432Zm-12.516-21.439c.414,2.436,2.722,15.177,6.2,18.349A9.381,9.381,0,1,0,703.8,168.777h0C700.317,165.606,687.417,164.48,684.954,164.292Z" transform="translate(-498.825 -129.692)"/><path class="c" d="M642.813,294.267a9.7,9.7,0,1,1-13.077,14.341c-3.96-3.611-6.369-18.94-6.369-18.94S638.853,290.656,642.813,294.267Z" transform="translate(-457.68 -214.988)"/><path class="d" d="M743.874,295.847a5.547,5.547,0,0,0-5.4-4.37,5.668,5.668,0,0,0-1.184.129c-2.892.627-8.031,6.925-8.248,7.191l-.256.314.362.181c.284.142,6.476,3.209,9.717,3.209a3.575,3.575,0,0,0,.77-.074,5.536,5.536,0,0,0,4.237-6.579Zm-1.3,3.817A4.837,4.837,0,0,1,739.5,301.8c-2.323.5-8.164-2.177-9.691-2.9,1.087-1.294,5.3-6.149,7.624-6.654a4.889,4.889,0,0,1,5.143,7.427Z" transform="translate(-529 -216.211)"/><ellipse class="e" cx="135.047" cy="3.137" rx="135.047" ry="3.137" transform="translate(1.526 228.392)"/><ellipse class="e" cx="93.494" cy="2.172" rx="93.494" ry="2.172" transform="translate(43.079 239.732)"/><ellipse class="e" cx="76.267" cy="1.771" rx="76.267" ry="1.771" transform="translate(60.348 249.543)"/><path class="f" d="M113.476,469.367s-4.529,10.674-.97,11.645,5.175-11.645,5.175-11.645Z" transform="translate(-111.142 -336.56)"/><path class="g" d="M18.61,229.075,6.8,264.495,4.216,283.579v6.146l6.793-.647V283.9l10.674-32.67Z" transform="translate(-2.852 -154.977)"/><path class="f" d="M185,361.254l-.647,7.116,20.7,1.294v-15.85C205.06,351.873,185,361.254,185,361.254Z" transform="translate(-160.675 -258.205)"/><path class="f" d="M151.328,715.465l-.97,9.057,10.674-.97s-2.911-7.116-3.235-8.087S151.328,715.465,151.328,715.465Z" transform="translate(-137.673 -502.761)"/><path class="f" d="M149.51,606.575l-1.294,8.733,6.793,4.852-.647-11.645Z" transform="translate(-100.273 -410.368)"/><path class="h" d="M159.72,385.367H153.9l-1.941,3.558s-12.615,9.057-12.615,27.818v41.4s-.323,29.435,3.235,32.67l.355,2.132.292,1.75,7.763-1.294a8.6,8.6,0,0,1,.324-4.852c.97-2.264-.647-14.879-.647-14.879l1.941-19.732,11.645-28.788,14.556,20.7s-1.617,28.789-.97,29.759-.323,3.882-.323,3.882h8.41L191.42,441l-12.292-34.611s1.294-15.85-3.235-17.467S159.72,385.367,159.72,385.367Z" transform="translate(-130.215 -279.731)"/><path class="h" d="M246,681.734s-1.059-4.852-2.956-5.822-4.807,1.617-4.807,1.617-7.763,1.617-4.528,9.7L235,689.174s2.264-.97,2.264,3.882,7.44,9.38,10.027,9.38,3.558-2.264,2.911-6.146-1.941-14.012-1.941-14.012Z" transform="translate(-193.529 -476.147)"/><path class="h" d="M154.459,729.749s-4.565-1.955-6.456-.975-1.475,4.853-1.475,4.853-3.192,7.259,5.27,9.322l2.331.074s.525-2.407,4.475.411,11.957-.608,13.46-2.715.223-4.212-3.312-5.939-12.534-6.558-12.534-6.558Z" transform="translate(-134.682 -511.683)"/><ellipse class="f" cx="10.998" cy="10.998" rx="10.998" ry="10.998" transform="translate(21.58 41.428)"/><path class="f" d="M77.157,175.575l-1.941,12.292,11.645.97,1.294-12.292Z" transform="translate(-50.886 -118.782)"/><path class="g" d="M185.426,269.415a26.985,26.985,0,0,0-14.074-11.37c-.9-.313-5.048-.256-7.549-.292a7.67,7.67,0,0,0-7.37,5.21c-3,8.81-6.957,26.094,4.984,32.834L164,298.061l22.966-6.469s-1.617-3.882-.647-5.175,4.205-9.057.647-14.556C186.416,271,185.9,270.185,185.426,269.415Z" transform="translate(-139.675 -193.395)"/><path class="h" d="M184.656,181.461s2.3-15.548-14.137-10.75c0,0-11.63-2.365-15.737,12.159L150.613,198.1l1.908-.992.844,1.942,3.046.834,1.36-2.574.573,3.169,25.019,2.98s-11.1-6.855-11.049-18.758l2.1,2.3Z" transform="translate(-137.845 -133.887)"/><path class="g" d="M1.379,0H3.57A1.379,1.379,0,0,1,4.949,1.379V16.82H0V1.379A1.379,1.379,0,0,1,1.379,0Z" transform="translate(27.464 36.417) rotate(-11.102)"/><ellipse class="g" cx="5.822" cy="5.822" rx="5.822" ry="5.822" transform="translate(28.697 47.574)"/><ellipse class="i" cx="3.235" cy="3.235" rx="3.235" ry="3.235" transform="translate(31.284 50.162)"/><path class="j" d="M260.879,474.021l1.569-2.058-.257-.2,1.057-1.388a3.107,3.107,0,0,0-.588-4.355l-3.8-2.9a3.107,3.107,0,0,0-4.355.588l-8.977,11.78a3.107,3.107,0,0,0,.588,4.355l3.8,2.9a3.107,3.107,0,0,0,4.355-.588l4.194-5.5.257.2,1.569-2.058-.257-.2.588-.772Z" transform="translate(-201.625 -331.906)"/><ellipse class="d" cx="1.617" cy="1.617" rx="1.617" ry="1.617" transform="translate(54.574 134.91)"/><path class="f" d="M245.358,474.661s1.617,13.262,4.529,12.615,2.264-13.909,0-13.909A10.6,10.6,0,0,0,245.358,474.661Z" transform="translate(-201.944 -339.266)"/><path class="g" d="M212.626,277.03a25.938,25.938,0,0,0-.647,10.028c.647,6.146,2.264,26.848,2.264,26.848s2.588,22.319,6.469,23.937l.97,4.529,7.44-1.294-.97-5.5a5.6,5.6,0,0,0,0-3.558c-.647-1.941-5.822-52.078-5.822-52.078S221.036,272.178,212.626,277.03Z" transform="translate(-179.239 -205.358)"/></svg>